<svg version="1.1" id="Layer_1" xmlns="http://www.w3.org/2000/svg" xmlns:xlink="http://www.w3.org/1999/xlink" x="0px" y="0px"
	 width="100%" viewBox="0 0 1507 373" enable-background="new 0 0 1507 373" xml:space="preserve">
<path fill="#000000" opacity="1.000000" stroke="none" 
	d="
M1097.000000,374.000000 
	C731.333374,374.000000 366.166718,374.000000 1.000049,374.000000 
	C1.000033,249.666702 1.000033,125.333389 1.000016,1.000066 
	C503.333282,1.000044 1005.666565,1.000044 1508.000000,1.000022 
	C1508.000000,125.333260 1508.000000,249.666519 1508.000000,373.999878 
	C1371.166626,374.000000 1234.333374,374.000000 1097.000000,374.000000 
M115.288536,138.938980 
	C114.682472,139.239777 114.076401,139.540573 112.903702,139.808624 
	C112.275040,140.197311 111.646378,140.586014 110.313286,141.066956 
	C104.675484,144.158554 99.403305,147.628647 96.431000,154.526718 
	C91.692482,164.049713 93.353897,178.969528 100.056366,185.916153 
	C104.650864,191.644333 110.820213,195.052444 117.851616,196.065887 
	C129.664963,197.768555 141.600540,198.605392 153.460175,200.012970 
	C158.607712,200.623932 163.694443,201.747330 168.808777,202.637985 
	C168.990936,203.327209 169.173080,204.016434 169.355225,204.705658 
	C167.617523,206.119080 166.095505,208.177368 164.107452,208.842361 
	C150.120209,213.520905 136.921310,210.782898 124.421593,203.745667 
	C121.675880,202.199844 119.331879,201.297852 116.743347,203.595703 
	C111.147446,208.563232 105.543541,213.523102 100.036812,218.588181 
	C99.283958,219.280655 99.068550,220.557465 98.223457,222.389206 
	C106.557968,226.646744 114.343750,231.572586 122.790550,234.730103 
	C137.740738,240.318680 153.569519,240.621429 169.125961,238.320312 
	C176.784225,237.187485 184.478302,234.073471 191.348907,230.361740 
	C201.576797,224.836304 205.376648,214.988312 204.566223,203.717896 
	C203.745117,192.298904 197.766479,184.038132 187.121460,179.576416 
	C183.311523,177.979523 179.274490,176.465988 175.216904,176.003052 
	C162.156662,174.512985 149.036819,173.548889 135.944290,172.335297 
	C133.608383,172.118774 130.006546,172.783295 130.486008,169.143860 
	C130.739090,167.222931 133.365051,164.415665 135.265198,164.102020 
	C149.371063,161.773697 163.087311,162.468964 175.361465,171.161148 
	C176.344269,171.857147 178.589905,172.200409 179.326447,171.591690 
	C186.450470,165.704102 193.377014,159.577606 200.894257,153.055801 
	C187.759293,142.815765 174.285477,136.610489 158.176636,134.617996 
	C148.056412,133.460724 137.950027,132.601089 127.330757,135.960892 
	C126.869850,136.070160 126.408943,136.179413 125.183113,136.165665 
	C122.880806,136.810287 120.578499,137.454910 118.107338,138.023575 
	C118.107338,138.023575 118.004021,138.177216 117.426414,138.129669 
	C116.941826,138.408508 116.457230,138.687347 115.999207,139.000610 
	C115.999207,139.000610 115.978638,138.963089 115.288536,138.938980 
M282.324890,198.892761 
	C282.110718,199.298416 281.896545,199.704071 281.217743,200.611771 
	C280.150665,201.761810 279.083588,202.911865 277.579865,204.239685 
	C277.298584,204.421768 277.130188,204.678024 276.543823,205.157944 
	C276.387238,205.254211 276.230621,205.350494 275.175629,205.324768 
	C272.764038,205.382111 270.352478,205.439453 267.378021,205.144287 
	C266.837494,204.760574 266.296967,204.376846 265.720764,203.580750 
	C265.558533,203.308945 265.321442,203.199905 264.564728,202.731354 
	C263.852539,201.844696 263.140381,200.958038 262.333649,199.558029 
	C261.947418,199.219666 261.561188,198.881302 261.117035,198.209900 
	C261.117035,198.209900 260.860931,197.989227 260.861938,197.352585 
	C260.530090,196.582672 260.198242,195.812759 259.861053,194.344345 
	C259.701202,193.911499 259.541351,193.478653 259.502655,192.275299 
	C258.956787,189.536865 258.410919,186.798416 257.938904,183.162384 
	C257.753662,181.377197 257.568420,179.592026 257.651062,176.939926 
	C257.545258,170.372360 257.439423,163.804794 257.541046,156.321487 
	C257.474487,153.239899 257.407898,150.158325 257.634521,146.189728 
	C258.059845,136.012405 258.059662,135.992401 247.801193,136.081055 
	C245.515656,136.100815 243.231827,136.315536 240.036301,136.257812 
	C234.375824,136.294952 228.715332,136.332092 222.219376,136.143280 
	C218.339462,135.433990 216.862488,136.909012 217.086899,140.950317 
	C217.380234,146.232254 217.055267,151.545639 217.110977,156.844269 
	C217.241364,169.246048 217.440079,181.647125 217.438263,194.832993 
	C217.660950,197.891144 217.883652,200.949295 217.981308,204.853897 
	C219.024612,208.557266 220.067917,212.260635 221.131210,216.659622 
	C221.318939,217.077499 221.506668,217.495361 221.624603,218.579117 
	C224.122849,222.262283 226.621094,225.945435 229.205383,229.868469 
	C229.205383,229.868469 229.443146,229.960129 229.451431,230.267929 
	C229.563049,230.485962 229.736649,230.561203 230.231262,230.901138 
	C230.231262,230.901138 230.652359,231.137390 230.935013,231.639359 
	C231.283783,231.779144 231.632553,231.918930 232.425507,232.565262 
	C245.397247,240.950119 259.138489,242.825195 272.913544,235.460770 
	C278.105957,232.684799 281.929230,227.347900 286.627930,223.581573 
	C286.627930,223.581573 287.033478,223.828903 287.041443,224.543060 
	C287.118683,225.011703 287.195923,225.480331 287.091095,226.867569 
	C287.091095,230.617935 287.091095,234.368286 287.091095,238.063843 
	C301.544830,238.063843 315.070953,238.063843 328.559967,238.063843 
	C328.559967,203.950806 328.559967,170.369064 328.559967,136.388351 
	C325.819122,136.388351 323.373535,136.388351 320.017365,136.206482 
	C311.042450,136.265915 302.067505,136.325348 292.245300,136.145660 
	C288.528046,135.498825 286.949280,136.608765 287.014435,140.819427 
	C287.258118,156.564941 287.121826,172.316360 287.053162,188.110657 
	C287.053162,188.110657 287.109558,188.177505 286.736694,188.653168 
	C286.559479,189.428879 286.382263,190.204605 285.929779,191.429077 
	C285.862885,191.770706 285.795959,192.112350 285.294800,192.720810 
	C285.171967,193.177902 285.049133,193.634979 284.544739,194.760254 
	C284.396210,195.249390 284.247681,195.738510 283.627594,196.609863 
	C283.327118,197.355759 283.026611,198.101639 282.841217,198.847733 
	C282.841217,198.847733 282.796783,198.741592 282.324890,198.892761 
M1126.721802,109.790833 
	C1126.147827,110.191422 1125.573853,110.592010 1124.612427,111.711929 
	C1124.539307,115.424713 1124.466187,119.137497 1124.064941,123.757378 
	C1124.038574,157.905090 1124.008789,192.052795 1124.002563,226.200500 
	C1124.002441,227.180435 1124.251465,228.160400 1124.346191,229.923813 
	C1124.365356,231.230484 1124.384521,232.537155 1124.161499,234.513733 
	C1124.259155,234.730225 1124.356689,234.946716 1124.422607,235.670670 
	C1124.547607,236.141220 1124.672607,236.611786 1124.809448,237.763702 
	C1125.210327,237.872253 1125.611206,237.980804 1126.818726,238.342972 
	C1128.213013,238.245621 1129.607178,238.148254 1131.904907,238.320724 
	C1141.272949,238.223663 1150.640991,238.126617 1160.785278,238.283539 
	C1161.854248,238.176682 1162.923096,238.069824 1164.752563,237.730667 
	C1164.777588,236.154648 1164.802734,234.578644 1164.959595,232.073257 
	C1164.910034,194.051590 1164.860474,156.029907 1165.005615,117.221115 
	C1164.938232,116.148659 1164.870850,115.076210 1164.923462,113.341408 
	C1164.877808,112.897217 1164.832031,112.453018 1164.974976,111.394119 
	C1164.640259,110.988327 1164.305420,110.582542 1163.093262,109.979149 
	C1160.397949,110.050438 1157.702637,110.121727 1154.089111,109.987473 
	C1146.381836,110.046196 1138.674438,110.104912 1130.395264,110.013634 
	C1129.809082,110.055229 1129.223022,110.096832 1128.092651,109.880707 
	C1127.725586,109.990623 1127.358398,110.100540 1126.721802,109.790833 
M482.995056,174.000885 
	C482.995056,174.000885 483.000702,174.010696 483.001038,174.758209 
	C483.974396,177.240692 484.947784,179.723175 485.864685,182.809952 
	C485.959930,183.201035 486.055206,183.592102 486.013153,184.914566 
	C486.075836,200.732391 486.318573,216.552811 486.090240,232.366440 
	C486.022766,237.040009 487.036987,238.947983 492.071167,238.635132 
	C498.871918,238.212494 505.718506,238.526398 512.545410,238.525223 
	C517.500671,238.524368 522.455933,238.525040 527.520020,238.525040 
	C527.729370,236.885544 527.959045,235.924942 527.958740,234.964386 
	C527.953918,217.314606 528.098816,199.661713 527.788696,182.016907 
	C527.693481,176.598389 526.337097,171.202026 525.591553,165.363754 
	C525.591553,165.363754 525.339172,165.011826 525.368286,164.476532 
	C525.292786,164.314575 525.217224,164.152618 525.186829,163.176437 
	C522.160645,147.840607 512.763855,138.801102 497.801605,134.902161 
	C482.650391,130.953979 466.531036,137.588806 458.876465,151.222183 
	C457.631653,153.439301 456.131348,155.512955 454.324036,158.311005 
	C448.868042,143.103577 438.044830,135.838013 423.444885,134.028687 
	C408.608704,132.190079 397.306091,139.063690 387.577545,151.415207 
	C387.257324,147.492691 387.072754,145.231827 387.069519,142.102005 
	C387.069519,140.326859 387.069519,138.551712 387.069519,136.498260 
	C373.521942,136.498260 360.469788,136.498260 346.944061,136.498260 
	C346.944061,138.486313 346.944946,140.113159 346.943909,141.739990 
	C346.929962,164.049850 346.910522,186.359695 346.904297,208.669556 
	C346.901917,217.160522 346.802429,225.655457 347.066254,234.138657 
	C347.111572,235.595657 348.735260,238.226242 349.676788,238.247635 
	C361.957367,238.526672 374.246429,238.432877 386.892303,238.432877 
	C386.892303,233.896255 386.892303,229.949783 387.059174,225.078384 
	C387.077271,213.914246 386.453308,202.697083 387.369019,191.607056 
	C387.869080,185.550919 390.429169,179.450043 393.087433,173.857605 
	C395.070984,169.684616 399.584076,167.672791 404.336029,167.990402 
	C408.803741,168.288986 412.201630,171.028168 413.443237,175.242157 
	C415.026520,180.615738 416.556091,186.191086 416.795654,191.736191 
	C417.305939,203.545425 416.969513,215.391281 416.978607,227.222122 
	C416.981232,230.675476 416.979004,234.128845 416.979004,237.850662 
	C431.139313,237.850662 444.668884,237.850662 458.195221,237.850662 
	C458.195221,221.933029 458.143097,206.457413 458.238647,190.982727 
	C458.258087,187.838547 458.453308,184.600922 459.223663,181.573334 
	C461.708557,171.807358 471.502655,161.815948 481.765259,172.668457 
	C482.174713,173.108765 482.584198,173.549072 482.995056,174.000885 
M597.961975,138.947479 
	C597.961975,138.947479 597.924805,138.846603 597.229736,138.942139 
	C593.466003,142.122269 589.702271,145.302383 585.938538,148.482513 
	C585.450928,148.410385 584.963379,148.338272 584.475830,148.266144 
	C584.475830,145.256180 584.685486,142.223236 584.359619,139.248962 
	C584.248718,138.237000 582.789124,137.372772 581.040955,136.229370 
	C575.712769,136.287064 570.384583,136.344742 564.206787,136.166473 
	C562.455444,136.239960 560.704041,136.313446 558.183594,136.204926 
	C557.136841,136.257645 556.090027,136.310364 554.139954,136.137985 
	C550.714478,136.137985 547.289001,136.137985 543.327515,136.137985 
	C543.327515,139.839706 543.327332,142.807693 543.327515,145.775681 
	C543.329041,171.438385 543.330139,197.101089 543.332397,222.763794 
	C543.332764,226.929504 543.103149,231.117188 543.489136,235.247131 
	C543.600281,236.436340 545.475037,238.394852 546.569275,238.414169 
	C558.062927,238.617081 569.564209,238.585281 581.056946,238.328979 
	C582.178101,238.303970 584.204895,236.352173 584.211914,235.284225 
	C584.317017,219.297440 584.153137,203.308914 584.501343,186.575836 
	C587.019958,181.448349 588.683167,175.596695 592.263184,171.367661 
	C597.294189,165.424637 606.281006,167.184387 609.574524,174.281433 
	C611.346130,178.098831 612.653564,182.476639 612.789062,186.646454 
	C613.280701,201.783005 613.516785,216.946609 613.143066,232.082581 
	C613.007568,237.569229 615.015442,238.468613 619.649536,238.363068 
	C629.634277,238.135681 639.627502,238.288498 649.617065,238.246902 
	C651.209229,238.240265 652.800598,238.032181 654.806335,237.887329 
	C654.806335,235.808395 654.804016,234.170746 654.806641,232.533096 
	C654.830566,217.715164 654.424255,202.876923 655.120728,188.090637 
	C655.355225,183.111481 657.506226,177.664841 660.336548,173.484955 
	C665.776245,165.451614 673.953003,166.147903 679.209351,174.306091 
	C679.569275,174.864685 679.931641,175.421722 680.269531,176.618652 
	C680.804321,177.525757 681.339172,178.432861 681.818970,179.691299 
	C681.818970,179.691299 682.011108,179.990540 681.902954,180.905655 
	C682.313416,195.993835 682.869873,211.079880 683.088745,226.170837 
	C683.267639,238.507172 683.089050,238.512421 695.409058,238.518051 
	C704.825195,238.522369 714.241394,238.518906 723.862427,238.518906 
	C723.862427,234.908630 723.862427,231.949905 724.011230,228.065369 
	C723.966003,212.379288 723.920837,196.693192 724.029541,180.089859 
	C724.026794,177.595001 724.328186,175.055374 723.968872,172.612976 
	C722.358582,161.668060 719.904175,151.043152 710.548584,142.760818 
	C705.289490,137.737274 698.628113,135.808350 691.776489,134.436401 
	C676.961609,131.469925 659.651367,139.085495 654.448975,153.991241 
	C653.993347,155.296677 651.822815,156.003525 650.200562,157.166336 
	C643.547180,137.093674 618.869202,127.999664 599.294128,137.791275 
	C598.820984,138.155792 598.347778,138.520309 597.961975,138.947479 
M980.571045,226.143524 
	C980.307373,226.368088 980.249573,226.636887 980.087891,227.584442 
	C980.050598,228.051910 980.013245,228.519363 979.497925,229.334549 
	C979.342651,229.888947 979.187378,230.443344 978.650452,231.346237 
	C978.642761,231.518311 978.635071,231.690399 978.180908,232.252365 
	C978.097412,232.826569 978.013916,233.400772 977.521179,234.481552 
	C977.399963,235.324051 977.278687,236.166550 977.008789,237.601608 
	C977.340271,237.750198 977.671814,237.898773 978.758301,238.364792 
	C979.833862,238.260040 980.909485,238.155289 982.758667,238.298874 
	C992.286682,238.311447 1001.815369,238.384186 1011.342041,238.276566 
	C1012.906128,238.258896 1014.461243,237.448318 1016.452332,236.416977 
	C1017.620361,232.272202 1018.788330,228.127426 1020.241272,223.462570 
	C1021.886475,222.034958 1023.505859,219.407272 1025.181030,219.371231 
	C1037.644409,219.103119 1050.118530,219.364883 1062.589600,219.422623 
	C1065.739258,219.437210 1067.395386,220.281525 1068.285889,223.962204 
	C1071.775757,238.388870 1071.998169,238.335052 1086.955688,238.326126 
	C1087.787231,238.325638 1088.618652,238.325424 1089.450195,238.325424 
	C1097.199951,238.325363 1104.949585,238.325394 1113.545410,238.325394 
	C1111.064331,231.992020 1108.911743,226.497330 1106.816650,220.440338 
	C1106.546631,219.958664 1106.276489,219.476974 1106.013306,218.240265 
	C1103.586914,212.064728 1101.160400,205.889191 1098.604248,198.913605 
	C1098.174805,197.933472 1097.745483,196.953354 1097.371582,195.283768 
	C1093.249146,184.521561 1089.126709,173.759354 1085.038330,162.228058 
	C1079.002319,145.888412 1073.032471,129.523438 1066.812378,113.254150 
	C1066.278687,111.858101 1064.104858,110.212914 1062.658936,110.179924 
	C1050.694580,109.906937 1038.721191,109.918716 1026.753296,110.062531 
	C1025.517700,110.077377 1023.592773,111.247849 1023.180603,112.334579 
	C1018.314575,125.163414 1013.676025,138.078522 1008.393005,151.425690 
	C1004.629822,161.631042 1000.865723,171.836075 997.103638,182.041840 
	C991.709717,196.674210 986.317200,211.307098 980.979065,225.940308 
	C980.979065,225.940308 980.940430,225.901154 980.571045,226.143524 
M908.722046,142.390839 
	C908.722046,140.478195 908.722046,138.565552 908.722046,136.422134 
	C906.804077,136.422134 905.359680,136.422134 903.006958,136.247238 
	C897.363708,136.312347 891.720459,136.377457 885.210022,136.187103 
	C883.114868,136.264923 881.019714,136.342728 878.081299,136.247162 
	C876.077026,136.288528 874.072815,136.329895 871.302307,136.143036 
	C867.168823,135.839722 868.136475,138.565750 868.290894,141.842239 
	C868.332825,146.875595 868.374817,151.908936 868.201050,157.865173 
	C868.286316,167.928055 868.371582,177.990936 868.299927,188.941376 
	C868.367920,191.943924 868.435913,194.946487 868.258850,198.863403 
	C868.225464,210.689011 868.285156,222.516098 868.098816,234.339294 
	C868.046753,237.643494 869.226807,238.722519 872.438293,238.663742 
	C880.430908,238.517532 888.428040,238.623520 896.423401,238.622467 
	C910.040039,238.620667 910.040039,238.618805 908.659668,224.156021 
	C908.613831,223.061050 908.568054,221.966064 908.779663,220.001495 
	C908.700623,216.045349 908.621582,212.089203 908.709351,207.197540 
	C908.863831,201.922379 909.018250,196.647217 909.637573,190.752380 
	C910.128296,188.166077 910.618958,185.579758 911.446472,182.380554 
	C912.497925,179.942368 913.449768,177.455261 914.619873,175.075424 
	C917.850098,168.505417 922.368713,166.218811 929.117493,168.873535 
	C934.169373,170.860794 938.714478,174.136505 944.074463,177.172226 
	C952.534424,169.445145 961.694397,161.078644 971.074097,152.511536 
	C965.331360,140.626160 955.095703,135.809341 943.103394,134.259033 
	C931.413574,132.747803 921.579834,136.839294 913.567871,146.183273 
	C913.269470,146.373428 913.142395,146.644012 912.699097,147.385880 
	C912.452820,147.719223 912.206543,148.052582 911.163757,148.492477 
	C910.209778,148.162216 909.255859,147.831955 908.479309,146.782242 
	C908.454163,145.551346 908.429077,144.320450 908.722046,142.390839 
M1183.109375,181.535767 
	C1187.058716,185.263428 1190.401978,190.475113 1195.091553,192.390350 
	C1203.268311,195.729828 1212.176392,197.675034 1220.959229,199.029205 
	C1230.781250,200.543625 1240.820557,200.606491 1250.723755,201.683945 
	C1252.185913,201.843002 1253.418457,204.110901 1254.757324,205.403091 
	C1253.335327,206.685257 1252.107300,208.623779 1250.451050,209.113297 
	C1246.980225,210.139099 1243.301636,210.572830 1239.677002,210.945511 
	C1229.881470,211.952682 1220.885620,208.928864 1212.302856,204.735443 
	C1207.600464,202.437912 1204.009033,202.635254 1200.214966,206.497177 
	C1196.379517,210.401138 1192.067993,213.865768 1187.770874,217.278748 
	C1184.321533,220.018494 1184.856079,221.548294 1188.387817,223.882904 
	C1202.592773,233.272400 1217.881836,239.102325 1235.074707,239.327881 
	C1248.788208,239.507782 1262.389771,239.182098 1274.947388,232.475754 
	C1284.442871,227.404678 1290.215820,220.026016 1290.993286,208.954407 
	C1291.859497,196.620224 1287.708130,186.758789 1276.474609,181.229370 
	C1270.474365,178.275833 1263.720581,176.240936 1257.093384,175.308655 
	C1245.573608,173.688126 1233.873779,173.385803 1222.284912,172.187302 
	C1219.935059,171.944290 1217.742676,170.179642 1215.477661,169.116501 
	C1215.562988,168.452393 1215.648438,167.788300 1215.733765,167.124207 
	C1218.188354,165.996460 1220.548218,164.228302 1223.113403,163.849106 
	C1235.883423,161.961456 1248.529541,162.279648 1259.669556,169.794250 
	C1263.912842,172.656586 1266.453613,172.037247 1269.820435,168.694458 
	C1275.289673,163.264008 1281.223511,158.301193 1287.084961,153.029633 
	C1267.347656,136.691498 1245.167358,131.970276 1221.300049,134.459274 
	C1210.102539,135.626984 1198.864624,137.857483 1189.310547,146.067810 
	C1178.699585,156.122986 1177.788086,167.924683 1183.109375,181.535767 
M1304.602661,171.612976 
	C1304.112915,179.542999 1302.473633,187.604721 1303.364014,195.376633 
	C1305.453979,213.616608 1313.438110,228.783264 1331.930786,235.015167 
	C1340.742432,237.984665 1350.441772,239.395706 1359.769775,239.541092 
	C1381.543945,239.880447 1399.414917,232.384048 1408.752319,210.796432 
	C1407.466797,210.128662 1406.245483,209.102356 1404.880737,208.848892 
	C1395.979248,207.195847 1387.080811,205.446747 1378.108643,204.293930 
	C1374.271484,203.800903 1369.840820,201.891403 1366.566650,206.330017 
	C1363.257446,210.816238 1358.363281,209.593323 1354.251953,208.466293 
	C1350.139648,207.338959 1347.265381,204.034149 1345.373779,199.135605 
	C1347.984985,199.009186 1349.761353,198.853912 1351.538208,198.847824 
	C1370.033691,198.784378 1388.531738,198.563644 1407.022949,198.820801 
	C1411.908081,198.888718 1413.700928,196.887253 1413.891724,192.595474 
	C1414.046875,189.104309 1414.243530,185.577774 1413.937744,182.109589 
	C1412.367310,164.298355 1406.284180,149.146301 1389.095825,140.617722 
	C1378.850586,135.534256 1367.929443,133.551132 1356.656982,133.883240 
	C1342.836182,134.290436 1329.600952,136.903030 1318.291504,147.016068 
	C1311.217163,153.548294 1306.468384,161.359192 1304.602661,171.612976 
M808.761414,232.866776 
	C808.008362,237.328049 810.016235,238.576828 814.308472,238.409149 
	C822.236206,238.099442 830.183777,238.297623 838.123108,238.288071 
	C842.022888,238.283371 845.922668,238.287277 849.854431,238.287277 
	C849.955139,236.556976 850.065918,235.736237 850.034180,234.921036 
	C849.995728,233.936356 849.836487,232.956390 849.900696,231.054932 
	C849.900696,199.640549 849.900696,168.226166 849.900696,136.468735 
	C836.078796,136.468735 822.685913,136.468735 809.169495,136.468735 
	C808.720886,140.447693 808.297729,144.201385 807.904114,147.693115 
	C803.044861,143.798752 799.129395,139.439163 794.255310,136.979187 
	C778.447021,129.000793 753.749634,136.745132 745.053162,155.234695 
	C737.371704,171.565964 737.587952,188.575195 740.709106,205.593353 
	C742.912476,217.607101 748.180786,228.377594 759.802307,234.569351 
	C772.685181,241.433136 791.330078,242.250687 801.431335,232.171066 
	C803.558472,230.048492 805.435120,227.674881 807.872681,224.911926 
	C808.304321,227.763641 808.623352,229.871536 808.761414,232.866776 
z"/>
<path fill="#D56121" opacity="1.000000" stroke="none" 
	d="
M723.875671,181.007111 
	C723.920837,196.693192 723.966003,212.379288 723.604858,228.606003 
	C720.978516,230.396057 718.634583,232.889938 716.559875,232.683167 
	C706.677307,231.698196 696.281372,232.778595 687.750732,225.380157 
	C685.845703,223.727905 684.988892,222.704712 684.992310,220.494232 
	C685.009094,209.675995 685.192993,198.851746 684.861145,188.043640 
	C684.777832,185.332657 683.006653,182.673508 682.011108,179.990540 
	C682.011108,179.990540 681.818970,179.691299 681.880066,179.155991 
	C681.391724,177.740265 680.842285,176.859863 680.292847,175.979462 
	C679.931641,175.421722 679.569275,174.864685 679.209351,174.306091 
	C673.953003,166.147903 665.776245,165.451614 660.336548,173.484955 
	C657.506226,177.664841 655.355225,183.111481 655.120728,188.090637 
	C654.424255,202.876923 654.830566,217.715164 654.806641,232.533096 
	C654.804016,234.170746 654.806335,235.808395 654.806335,237.887329 
	C652.800598,238.032181 651.209229,238.240265 649.617065,238.246902 
	C639.627502,238.288498 629.634277,238.135681 619.649536,238.363068 
	C615.015442,238.468613 613.007568,237.569229 613.143066,232.082581 
	C613.516785,216.946609 613.280701,201.783005 612.789062,186.646454 
	C612.653564,182.476639 611.346130,178.098831 609.574524,174.281433 
	C606.281006,167.184387 597.294189,165.424637 592.263184,171.367661 
	C588.683167,175.596695 587.019958,181.448349 584.086914,187.215912 
	C583.448181,199.625046 583.216370,211.393982 583.005859,223.163284 
	C582.962769,225.571381 582.999634,227.980881 582.999634,230.543716 
	C581.077087,230.416122 579.908447,230.120514 578.819031,230.301575 
	C571.677673,231.488480 564.577637,232.943741 557.417542,233.993393 
	C548.200195,235.344574 545.015625,232.518387 544.992126,223.241699 
	C544.950317,206.772461 544.982788,190.303040 544.984558,173.833694 
	C544.985046,168.755035 545.173340,163.667786 544.940063,158.599915 
	C544.655029,152.407043 544.142639,146.253662 549.288391,141.496719 
	C551.175720,139.752014 553.123230,138.072388 555.043274,136.363068 
	C556.090027,136.310364 557.136841,136.257645 558.656738,136.629456 
	C561.376892,139.306290 563.557983,140.959061 565.056396,136.402435 
	C570.384583,136.344742 575.712769,136.287064 581.514587,136.730469 
	C582.325134,140.513336 582.554504,143.811523 583.051636,147.068878 
	C583.251221,148.377029 584.078186,150.681839 584.552307,150.664780 
	C586.505981,150.594482 589.082275,150.410995 590.243591,149.164291 
	C593.148315,146.045792 595.406921,142.325470 597.924805,138.846603 
	C597.924805,138.846603 597.961975,138.947479 598.245850,138.920059 
	C598.988037,138.493484 599.446411,138.094315 599.904785,137.695160 
	C618.869202,127.999664 643.547180,137.093674 650.200562,157.166336 
	C651.822815,156.003525 653.993347,155.296677 654.448975,153.991241 
	C659.651367,139.085495 676.961609,131.469925 691.776489,134.436401 
	C698.628113,135.808350 705.289490,137.737274 710.775513,143.388550 
	C711.485596,145.040268 711.894287,146.107742 712.463318,147.081497 
	C717.964355,156.494431 723.354248,165.909668 722.110413,177.504990 
	C721.993286,178.596695 723.254456,179.836212 723.875671,181.007111 
z"/>
<path fill="#D76120" opacity="1.000000" stroke="none" 
	d="
M481.483063,172.129913 
	C471.502655,161.815948 461.708557,171.807358 459.223663,181.573334 
	C458.453308,184.600922 458.258087,187.838547 458.238647,190.982727 
	C458.143097,206.457413 458.195221,221.933029 458.195221,237.850662 
	C444.668884,237.850662 431.139313,237.850662 416.979004,237.850662 
	C416.979004,234.128845 416.981232,230.675476 416.978607,227.222122 
	C416.969513,215.391281 417.305939,203.545425 416.795654,191.736191 
	C416.556091,186.191086 415.026520,180.615738 413.443237,175.242157 
	C412.201630,171.028168 408.803741,168.288986 404.336029,167.990402 
	C399.584076,167.672791 395.070984,169.684616 393.087433,173.857605 
	C390.429169,179.450043 387.869080,185.550919 387.369019,191.607056 
	C386.453308,202.697083 387.077271,213.914246 386.610504,225.548737 
	C384.674774,226.681702 382.880524,227.013428 381.751495,228.061630 
	C375.363831,233.992004 362.014709,233.920685 355.517395,228.109390 
	C350.536560,223.654434 351.744476,217.978973 352.190338,212.713440 
	C353.483093,197.447433 353.638733,182.270081 351.266571,167.085159 
	C350.502197,162.192108 349.973785,157.184631 350.091095,152.247391 
	C350.344086,141.598770 355.330902,138.128265 365.228058,141.207932 
	C370.026459,142.701050 374.631470,143.851974 379.739136,141.516602 
	C381.526764,140.699234 384.471741,142.413025 386.888184,142.970947 
	C387.072754,145.231827 387.257324,147.492691 387.577545,151.415207 
	C397.306091,139.063690 408.608704,132.190079 423.444885,134.028687 
	C438.044830,135.838013 448.868042,143.103577 454.324036,158.311005 
	C456.131348,155.512955 457.631653,153.439301 458.876465,151.222183 
	C466.531036,137.588806 482.650391,130.953979 497.801605,134.902161 
	C512.763855,138.801102 522.160645,147.840607 524.991394,163.691895 
	C524.977051,164.475494 525.158081,164.743668 525.339172,165.011826 
	C525.339172,165.011826 525.591553,165.363754 525.225586,165.797638 
	C524.907593,168.462143 525.109802,170.702011 524.976807,172.921814 
	C524.404114,182.483124 523.662048,192.034622 523.130676,201.597961 
	C522.895569,205.828629 522.634460,210.116440 523.047363,214.313156 
	C524.131714,225.335648 518.050232,232.154984 509.988556,232.718109 
	C497.015625,233.624252 494.541687,231.107895 492.217041,219.983109 
	C491.915894,218.542114 491.950073,217.003494 492.015198,215.518265 
	C492.305054,208.910858 493.026794,202.298019 492.874512,195.703705 
	C492.763062,190.877167 491.265533,186.233932 486.150452,183.983185 
	C486.055206,183.592102 485.959930,183.201035 485.923218,182.072113 
	C485.866028,178.535706 486.959839,175.244797 483.000702,174.010696 
	C483.000702,174.010696 482.995056,174.000885 482.955139,173.665054 
	C482.437866,172.929459 481.960480,172.529678 481.483063,172.129913 
z"/>
<path fill="#D56121" opacity="1.000000" stroke="none" 
	d="
M808.942383,231.979431 
	C808.623352,229.871536 808.304321,227.763641 807.872681,224.911926 
	C805.435120,227.674881 803.558472,230.048492 801.431335,232.171066 
	C791.330078,242.250687 772.685181,241.433136 759.802307,234.569351 
	C748.180786,228.377594 742.912476,217.607101 740.709106,205.593353 
	C737.587952,188.575195 737.371704,171.565964 745.053162,155.234695 
	C753.749634,136.745132 778.447021,129.000793 794.255310,136.979187 
	C799.129395,139.439163 803.044861,143.798752 807.904114,147.693115 
	C808.297729,144.201385 808.720886,140.447693 809.169495,136.468735 
	C822.685913,136.468735 836.078796,136.468735 849.900696,136.468735 
	C849.900696,168.226166 849.900696,199.640549 849.488525,231.431259 
	C847.457397,231.381058 845.537842,230.166031 844.266541,230.650894 
	C832.599548,235.100800 820.938354,237.253448 808.942383,231.979431 
M788.085510,205.704926 
	C794.251038,207.871857 799.910339,207.330383 804.346436,202.110382 
	C810.203979,195.217758 810.172363,179.146774 804.467285,171.999664 
	C799.006348,165.158264 790.479431,164.893417 783.929688,170.841431 
	C777.142822,177.004807 775.995422,199.897034 788.085510,205.704926 
z"/>
<path fill="#D56020" opacity="1.000000" stroke="none" 
	d="
M1318.921021,146.751038 
	C1329.600952,136.903030 1342.836182,134.290436 1356.656982,133.883240 
	C1367.929443,133.551132 1378.850586,135.534256 1389.095825,140.617722 
	C1406.284180,149.146301 1412.367310,164.298355 1413.937744,182.109589 
	C1414.243530,185.577774 1414.046875,189.104309 1413.891724,192.595474 
	C1413.700928,196.887253 1411.908081,198.888718 1407.022949,198.820801 
	C1388.531738,198.563644 1370.033691,198.784378 1351.538208,198.847824 
	C1349.761353,198.853912 1347.984985,199.009186 1345.373779,199.135605 
	C1347.265381,204.034149 1350.139648,207.338959 1354.251953,208.466293 
	C1358.363281,209.593323 1363.257446,210.816238 1366.566650,206.330017 
	C1369.840820,201.891403 1374.271484,203.800903 1378.108643,204.293930 
	C1387.080811,205.446747 1395.979248,207.195847 1404.880737,208.848892 
	C1406.245483,209.102356 1407.466797,210.128662 1408.752319,210.796432 
	C1399.414917,232.384048 1381.543945,239.880447 1359.769775,239.541092 
	C1350.441772,239.395706 1340.742432,237.984665 1331.930786,235.015167 
	C1313.438110,228.783264 1305.453979,213.616608 1303.364014,195.376633 
	C1302.473633,187.604721 1304.112915,179.542999 1305.229248,171.309677 
	C1307.237793,170.314133 1309.370972,169.970215 1309.879761,168.872925 
	C1313.102539,161.923889 1315.969971,154.809830 1318.931519,147.740509 
	C1319.048584,147.461166 1318.929932,147.083115 1318.921021,146.751038 
M1345.199707,174.098785 
	C1345.929443,175.439667 1346.617920,177.917694 1347.395142,177.945847 
	C1355.322998,178.232925 1363.265259,178.121429 1371.336914,178.121429 
	C1369.380615,169.744873 1364.695190,164.670715 1358.641113,163.898788 
	C1353.511475,163.244720 1348.825195,166.568176 1345.199707,174.098785 
z"/>
<path fill="#D56120" opacity="1.000000" stroke="none" 
	d="
M1189.964844,145.882278 
	C1198.864624,137.857483 1210.102539,135.626984 1221.300049,134.459274 
	C1245.167358,131.970276 1267.347656,136.691498 1287.084961,153.029633 
	C1281.223511,158.301193 1275.289673,163.264008 1269.820435,168.694458 
	C1266.453613,172.037247 1263.912842,172.656586 1259.669556,169.794250 
	C1248.529541,162.279648 1235.883423,161.961456 1223.113403,163.849106 
	C1220.548218,164.228302 1218.188354,165.996460 1215.733765,167.124207 
	C1215.648438,167.788300 1215.562988,168.452393 1215.477661,169.116501 
	C1217.742676,170.179642 1219.935059,171.944290 1222.284912,172.187302 
	C1233.873779,173.385803 1245.573608,173.688126 1257.093384,175.308655 
	C1263.720581,176.240936 1270.474365,178.275833 1276.474609,181.229370 
	C1287.708130,186.758789 1291.859497,196.620224 1290.993286,208.954407 
	C1290.215820,220.026016 1284.442871,227.404678 1274.947388,232.475754 
	C1262.389771,239.182098 1248.788208,239.507782 1235.074707,239.327881 
	C1217.881836,239.102325 1202.592773,233.272400 1188.387817,223.882904 
	C1184.856079,221.548294 1184.321533,220.018494 1187.770874,217.278748 
	C1192.067993,213.865768 1196.379517,210.401138 1200.214966,206.497177 
	C1204.009033,202.635254 1207.600464,202.437912 1212.302856,204.735443 
	C1220.885620,208.928864 1229.881470,211.952682 1239.677002,210.945511 
	C1243.301636,210.572830 1246.980225,210.139099 1250.451050,209.113297 
	C1252.107300,208.623779 1253.335327,206.685257 1254.757324,205.403107 
	C1253.418457,204.110901 1252.185913,201.843002 1250.723755,201.683945 
	C1240.820557,200.606491 1230.781250,200.543625 1220.959229,199.029205 
	C1212.176392,197.675034 1203.268311,195.729828 1195.091553,192.390350 
	C1190.401978,190.475113 1187.058716,185.263428 1183.129639,180.812546 
	C1183.766479,174.062714 1184.064087,167.980240 1185.105591,162.027939 
	C1185.878174,157.611740 1187.611938,153.363083 1188.928711,149.043182 
	C1189.251831,147.982803 1189.618286,146.935562 1189.964844,145.882278 
z"/>
<path fill="#D56121" opacity="1.000000" stroke="none" 
	d="
M158.800720,135.055847 
	C174.285477,136.610489 187.759293,142.815765 200.894257,153.055801 
	C193.377014,159.577606 186.450470,165.704102 179.326447,171.591690 
	C178.589905,172.200409 176.344269,171.857147 175.361465,171.161148 
	C163.087311,162.468964 149.371063,161.773697 135.265198,164.102020 
	C133.365051,164.415665 130.739090,167.222931 130.486008,169.143860 
	C130.006546,172.783295 133.608383,172.118774 135.944290,172.335297 
	C149.036819,173.548889 162.156662,174.512985 175.216904,176.003052 
	C179.274490,176.465988 183.311523,177.979523 187.121460,179.576416 
	C197.766479,184.038132 203.745117,192.298904 204.566223,203.717896 
	C205.376648,214.988312 201.576797,224.836304 191.348907,230.361740 
	C184.478302,234.073471 176.784225,237.187485 169.125961,238.320312 
	C153.569519,240.621429 137.740738,240.318680 122.790550,234.730103 
	C114.343750,231.572586 106.557968,226.646744 98.223457,222.389206 
	C99.068550,220.557465 99.283958,219.280655 100.036812,218.588181 
	C105.543541,213.523102 111.147446,208.563232 116.743347,203.595703 
	C119.331879,201.297852 121.675880,202.199844 124.421593,203.745667 
	C136.921310,210.782898 150.120209,213.520905 164.107452,208.842361 
	C166.095505,208.177368 167.617523,206.119080 169.355225,204.705658 
	C169.173080,204.016434 168.990936,203.327209 168.808777,202.637985 
	C163.694443,201.747330 158.607712,200.623932 153.460175,200.012970 
	C141.600540,198.605392 129.664963,197.768555 117.851616,196.065887 
	C110.820213,195.052444 104.650864,191.644333 100.130814,185.251968 
	C102.943810,181.810532 101.678200,178.856873 100.821747,175.757126 
	C99.963898,172.652359 99.345062,169.427765 99.105331,166.219528 
	C98.802223,162.163101 98.988365,158.070114 99.137192,153.694717 
	C103.492531,149.519196 109.975304,147.810562 111.017715,140.974716 
	C111.646378,140.586014 112.275040,140.197311 113.545380,139.847504 
	C114.784248,139.578598 115.381439,139.270844 115.978638,138.963089 
	C115.978638,138.963089 115.999207,139.000610 116.272995,138.984436 
	C117.032524,138.704575 117.518272,138.440903 118.004021,138.177216 
	C118.004021,138.177216 118.107338,138.023575 118.572998,138.041580 
	C121.341789,137.469284 123.644913,136.878983 125.948036,136.288681 
	C126.408943,136.179413 126.869850,136.070160 128.145874,135.993088 
	C138.907578,135.702148 148.854141,135.378998 158.800720,135.055847 
z"/>
<path fill="#D76221" opacity="1.000000" stroke="none" 
	d="
M276.074005,205.446762 
	C276.230621,205.350494 276.387238,205.254211 277.022125,204.989380 
	C277.762421,204.629074 277.934479,204.376114 278.016541,204.061920 
	C279.083588,202.911865 280.150665,201.761810 281.673828,200.274063 
	C282.352173,199.538101 282.574493,199.139847 282.796783,198.741592 
	C282.796783,198.741592 282.841217,198.847733 283.080963,198.720642 
	C283.580200,197.804932 283.839661,197.016281 284.099152,196.227646 
	C284.247681,195.738510 284.396210,195.249390 284.942688,194.289795 
	C285.470123,193.364212 285.599579,192.909088 285.729065,192.453979 
	C285.795959,192.112350 285.862885,191.770706 286.292542,190.995575 
	C286.806732,189.767212 286.958160,188.972351 287.109558,188.177505 
	C287.109558,188.177505 287.053162,188.110657 287.464813,187.995651 
	C288.472473,187.337860 289.527893,186.846237 289.594879,186.244568 
	C290.454529,178.524704 291.207977,170.792191 291.881348,163.053543 
	C291.962372,162.122330 291.331451,161.149887 291.175476,160.173386 
	C290.733368,157.405182 289.779022,154.555923 290.095337,151.864212 
	C290.707062,146.658875 292.051727,141.539688 293.092590,136.384781 
	C302.067505,136.325348 311.042450,136.265915 320.493469,136.653748 
	C321.826202,138.402756 322.756897,139.662735 323.520264,141.017029 
	C324.427551,142.626648 325.901672,144.313354 325.910858,145.973419 
	C326.059937,172.843323 325.938202,199.714767 326.100769,226.584534 
	C326.123962,230.418549 324.259399,231.440384 321.174377,231.972641 
	C316.312592,232.811447 311.429047,233.579254 306.624207,234.680374 
	C299.208496,236.379807 296.097107,234.994781 292.067535,228.529007 
	C291.234406,227.192230 288.910187,226.784760 287.273193,225.948975 
	C287.195923,225.480331 287.118683,225.011703 287.006287,224.060608 
	C286.848236,223.333099 286.650085,223.199860 286.376648,223.178436 
	C281.929230,227.347900 278.105957,232.684799 272.913544,235.460770 
	C259.138489,242.825195 245.397247,240.950119 232.051819,232.070847 
	C231.336197,231.430084 230.994278,231.283737 230.652359,231.137390 
	C230.652359,231.137390 230.231262,230.901138 230.041428,230.584915 
	C229.744705,230.127136 229.608551,230.024292 229.443146,229.960129 
	C229.443146,229.960129 229.205383,229.868469 229.134827,229.373016 
	C228.503342,223.948547 226.888794,219.727768 221.694397,217.913239 
	C221.506668,217.495361 221.318939,217.077499 221.273865,216.040985 
	C220.313126,211.617386 219.209732,207.812408 218.106339,204.007446 
	C217.883652,200.949295 217.660950,197.891144 217.821808,194.270554 
	C218.635254,191.814438 218.684998,189.719864 219.561066,188.061951 
	C223.297653,180.990555 221.352448,174.132446 220.070419,166.848206 
	C218.995331,160.739685 220.073822,154.188736 220.654556,147.875610 
	C221.011124,143.999359 222.225601,140.202011 223.054855,136.369232 
	C228.715332,136.332092 234.375824,136.294952 240.599701,136.652374 
	C242.634262,138.030960 244.086838,139.044327 245.581070,139.991989 
	C247.709625,141.341904 249.868729,142.643616 252.067566,144.374069 
	C252.419418,150.614258 252.968552,156.447235 252.947708,162.278152 
	C252.926590,168.192490 252.178421,174.101807 252.069336,180.019226 
	C252.008286,183.331238 253.203171,186.218918 257.270538,187.252716 
	C258.133423,189.357895 258.757477,191.201843 259.381531,193.045792 
	C259.541351,193.478653 259.701202,193.911499 259.667267,194.880127 
	C259.935974,196.273682 260.398468,197.131454 260.860931,197.989227 
	C260.860931,197.989227 261.117035,198.209900 261.168579,198.651260 
	C261.622803,199.418869 262.025513,199.745132 262.428192,200.071381 
	C263.140381,200.958038 263.852539,201.844696 264.867432,203.155426 
	C265.319061,203.783279 265.514496,203.921143 265.756439,203.993134 
	C266.296967,204.376846 266.837494,204.760574 267.766541,205.653366 
	C271.018280,208.397552 273.832001,210.085236 276.074005,205.446762 
z"/>
<path fill="#ECE7D2" opacity="1.000000" stroke="none" 
	d="
M1008.977661,150.970947 
	C1013.676025,138.078522 1018.314575,125.163414 1023.180603,112.334579 
	C1023.592773,111.247849 1025.517700,110.077377 1026.753296,110.062531 
	C1038.721191,109.918716 1050.694580,109.906937 1062.658936,110.179924 
	C1064.104858,110.212914 1066.278687,111.858101 1066.812378,113.254150 
	C1073.032471,129.523438 1079.002319,145.888412 1084.662354,162.657608 
	C1081.351562,163.991928 1080.341919,165.514771 1080.637451,168.972626 
	C1081.204956,175.612564 1080.802734,182.335373 1080.802734,189.291794 
	C1080.384399,189.514893 1078.512451,189.878769 1078.207642,190.775391 
	C1075.645874,198.311447 1073.846558,206.181259 1066.962646,211.387939 
	C1066.321289,211.872955 1066.053223,213.215118 1066.073486,214.149277 
	C1066.171631,218.660873 1063.624268,218.299347 1060.548584,217.515320 
	C1062.061523,212.670288 1059.912476,210.316818 1055.005493,211.210403 
	C1053.215454,211.536377 1051.426270,212.645050 1049.718262,212.491333 
	C1045.398926,212.102570 1040.596558,212.212082 1036.940552,210.300095 
	C1028.446533,205.857986 1017.198669,208.445587 1012.096313,216.529404 
	C1009.649231,220.406311 1006.773132,224.560837 1003.033691,226.896118 
	C1000.159302,228.691132 995.498657,228.472366 991.929077,227.727371 
	C991.007080,227.534958 990.141785,221.615417 991.082703,218.981094 
	C993.844238,211.249481 997.792664,203.949249 1000.748291,196.276672 
	C1002.464722,191.820694 1004.655151,189.783112 1009.776245,189.788422 
	C1016.482056,189.795364 1019.089966,184.050644 1016.600647,177.629715 
	C1015.536865,174.886017 1015.921936,171.576309 1015.676392,168.521561 
	C1015.559692,167.069321 1015.904663,165.437485 1015.355408,164.188202 
	C1013.387817,159.712845 1011.127380,155.366226 1008.977661,150.970947 
M1036.385742,189.808411 
	C1042.467041,189.808411 1048.548340,189.808411 1055.563354,189.808411 
	C1052.112183,177.336029 1048.929932,165.835831 1045.541138,153.588593 
	C1044.567627,155.188980 1043.781860,156.060699 1043.458130,157.079269 
	C1040.606934,166.052399 1037.730835,175.020996 1035.139282,184.070267 
	C1034.651001,185.774811 1035.391724,187.831314 1036.385742,189.808411 
z"/>
<path fill="#D76221" opacity="1.000000" stroke="none" 
	d="
M908.522217,220.871094 
	C908.568054,221.966064 908.613831,223.061050 908.279175,224.679932 
	C905.257385,227.759735 902.979980,231.822144 899.900879,232.565964 
	C892.937500,234.248108 885.582886,234.696838 878.377808,234.775879 
	C875.969849,234.802292 872.093628,232.665863 871.420410,230.665863 
	C870.168335,226.946106 870.694397,222.601913 870.626282,218.515259 
	C870.510986,211.594147 872.800781,204.436661 868.503845,197.949036 
	C868.435913,194.946487 868.367920,191.943924 868.700745,188.346588 
	C869.653137,178.836868 870.310547,169.925827 870.640991,161.002670 
	C870.690002,159.678482 869.196594,158.297165 868.416748,156.942291 
	C868.374817,151.908936 868.332825,146.875595 868.569824,141.155853 
	C869.921936,139.103409 870.995239,137.737320 872.068542,136.371246 
	C874.072815,136.329895 876.077026,136.288528 878.599121,136.661484 
	C881.714050,139.909286 884.077087,140.170181 886.077209,136.442551 
	C891.720459,136.377457 897.363708,136.312347 903.498230,136.672363 
	C905.460938,139.094864 906.932434,141.092209 908.403931,143.089569 
	C908.429077,144.320450 908.454163,145.551346 908.297241,147.523666 
	C908.552795,149.113831 908.990356,149.962555 909.427856,150.811310 
	C910.271973,150.002853 911.116150,149.194412 911.960205,148.385941 
	C912.206543,148.052582 912.452820,147.719223 913.137207,147.085403 
	C913.809998,146.584244 913.955872,146.332169 914.012939,146.028702 
	C921.579834,136.839294 931.413574,132.747803 943.103394,134.259033 
	C955.095703,135.809341 965.331360,140.626160 971.074097,152.511536 
	C961.694397,161.078644 952.534424,169.445145 944.074463,177.172226 
	C938.714478,174.136505 934.169373,170.860794 929.117493,168.873535 
	C922.368713,166.218811 917.850098,168.505417 914.619873,175.075424 
	C913.449768,177.455261 912.497925,179.942368 910.982788,182.927856 
	C910.070312,186.107452 909.621460,188.739746 909.172668,191.372055 
	C909.018250,196.647217 908.863831,201.922379 908.438477,208.005585 
	C908.285767,212.832779 908.403992,216.851944 908.522217,220.871094 
z"/>
<path fill="#ECE7D4" opacity="1.000000" stroke="none" 
	d="
M1008.685303,151.198318 
	C1011.127380,155.366226 1013.387817,159.712845 1015.355408,164.188202 
	C1015.904663,165.437485 1015.559692,167.069321 1015.676392,168.521561 
	C1015.921936,171.576309 1015.536865,174.886017 1016.600647,177.629715 
	C1019.089966,184.050644 1016.482056,189.795364 1009.776245,189.788422 
	C1004.655151,189.783112 1002.464722,191.820694 1000.748291,196.276672 
	C997.792664,203.949249 993.844238,211.249481 991.082703,218.981094 
	C990.141785,221.615417 991.007080,227.534958 991.929077,227.727371 
	C995.498657,228.472366 1000.159302,228.691132 1003.033691,226.896118 
	C1006.773132,224.560837 1009.649231,220.406311 1012.096313,216.529404 
	C1017.198669,208.445587 1028.446533,205.857986 1036.940552,210.300095 
	C1040.596558,212.212082 1045.398926,212.102570 1049.718262,212.491333 
	C1051.426270,212.645050 1053.215454,211.536377 1055.005493,211.210403 
	C1059.912476,210.316818 1062.061523,212.670288 1060.548584,217.515320 
	C1063.624268,218.299347 1066.171631,218.660873 1066.073486,214.149277 
	C1066.053223,213.215118 1066.321289,211.872955 1066.962646,211.387939 
	C1073.846558,206.181259 1075.645874,198.311447 1078.207642,190.775391 
	C1078.512451,189.878769 1080.384399,189.514893 1080.802734,189.291794 
	C1080.802734,182.335373 1081.204956,175.612564 1080.637451,168.972626 
	C1080.341919,165.514771 1081.351562,163.991928 1084.645264,163.042145 
	C1089.126709,173.759354 1093.249146,184.521561 1097.074707,195.521057 
	C1093.386719,192.246063 1091.397461,197.082001 1088.512573,197.325531 
	C1084.941528,197.626999 1082.681641,200.257324 1082.855225,204.684250 
	C1082.984863,207.985413 1082.524780,211.729782 1081.009766,214.575180 
	C1078.831665,218.665344 1077.883057,222.379364 1080.823242,226.095901 
	C1084.128662,230.274109 1089.104858,229.721786 1093.268677,228.502396 
	C1097.257080,227.334442 1099.597412,223.722885 1098.963623,219.164337 
	C1098.308594,214.450470 1097.457397,209.757675 1096.504517,205.093948 
	C1096.008911,202.667831 1095.302124,200.402832 1098.734009,199.713638 
	C1101.160400,205.889191 1103.586914,212.064728 1105.801514,218.780273 
	C1105.979492,219.881073 1106.369385,220.441864 1106.759277,221.002655 
	C1108.911743,226.497330 1111.064331,231.992020 1113.545410,238.325394 
	C1104.949585,238.325394 1097.199951,238.325363 1089.450195,238.325424 
	C1088.618652,238.325424 1087.787231,238.325638 1086.955688,238.326126 
	C1071.998169,238.335052 1071.775757,238.388870 1068.285889,223.962204 
	C1067.395386,220.281525 1065.739258,219.437210 1062.589600,219.422623 
	C1050.118530,219.364883 1037.644409,219.103119 1025.181030,219.371231 
	C1023.505859,219.407272 1021.886475,222.034958 1019.874207,223.483032 
	C1019.591736,221.809509 1019.676331,220.115540 1019.833374,216.971680 
	C1017.829041,218.564911 1016.641663,219.115372 1016.046387,220.045029 
	C1011.809937,226.661026 1005.562683,230.349106 998.346741,232.893921 
	C993.257019,234.688934 989.630615,233.452484 986.385376,229.080948 
	C985.237488,227.534607 982.782349,226.958710 980.924011,225.939758 
	C986.317200,211.307098 991.709717,196.674210 997.103638,182.041840 
	C1000.865723,171.836075 1004.629822,161.631042 1008.685303,151.198318 
z"/>
<path fill="#CE6527" opacity="1.000000" stroke="none" 
	d="
M386.978882,142.536469 
	C384.471741,142.413025 381.526764,140.699234 379.739136,141.516602 
	C374.631470,143.851974 370.026459,142.701050 365.228058,141.207932 
	C355.330902,138.128265 350.344086,141.598770 350.091095,152.247391 
	C349.973785,157.184631 350.502197,162.192108 351.266571,167.085159 
	C353.638733,182.270081 353.483093,197.447433 352.190338,212.713440 
	C351.744476,217.978973 350.536560,223.654434 355.517395,228.109390 
	C362.014709,233.920685 375.363831,233.992004 381.751495,228.061630 
	C382.880524,227.013428 384.674774,226.681702 386.527069,226.011200 
	C386.892303,229.949783 386.892303,233.896255 386.892303,238.432877 
	C374.246429,238.432877 361.957367,238.526672 349.676788,238.247635 
	C348.735260,238.226242 347.111572,235.595657 347.066254,234.138657 
	C346.802429,225.655457 346.901917,217.160522 346.904297,208.669556 
	C346.910522,186.359695 346.929962,164.049850 346.943909,141.739990 
	C346.944946,140.113159 346.944061,138.486313 346.944061,136.498260 
	C360.469788,136.498260 373.521942,136.498260 387.069519,136.498260 
	C387.069519,138.551712 387.069519,140.326859 386.978882,142.536469 
z"/>
<path fill="#C6642C" opacity="1.000000" stroke="none" 
	d="
M486.081787,184.448883 
	C491.265533,186.233932 492.763062,190.877167 492.874512,195.703705 
	C493.026794,202.298019 492.305054,208.910858 492.015198,215.518265 
	C491.950073,217.003494 491.915894,218.542114 492.217041,219.983109 
	C494.541687,231.107895 497.015625,233.624252 509.988556,232.718109 
	C518.050232,232.154984 524.131714,225.335648 523.047363,214.313156 
	C522.634460,210.116440 522.895569,205.828629 523.130676,201.597961 
	C523.662048,192.034622 524.404114,182.483124 524.976807,172.921814 
	C525.109802,170.702011 524.907593,168.462143 525.208862,166.013519 
	C526.337097,171.202026 527.693481,176.598389 527.788696,182.016907 
	C528.098816,199.661713 527.953918,217.314606 527.958740,234.964386 
	C527.959045,235.924942 527.729370,236.885544 527.520020,238.525040 
	C522.455933,238.525040 517.500671,238.524368 512.545410,238.525223 
	C505.718506,238.526398 498.871918,238.212494 492.071167,238.635132 
	C487.036987,238.947983 486.022766,237.040009 486.090240,232.366440 
	C486.318573,216.552811 486.075836,200.732391 486.081787,184.448883 
z"/>
<path fill="#F3F0D9" opacity="1.000000" stroke="none" 
	d="
M1155.007324,110.193024 
	C1157.702637,110.121727 1160.397949,110.050438 1163.541626,110.341858 
	C1164.255493,111.139313 1164.520996,111.574066 1164.786377,112.008820 
	C1164.832031,112.453018 1164.877808,112.897217 1164.655762,113.911064 
	C1164.529053,115.656563 1164.670044,116.832397 1164.810913,118.008232 
	C1164.860474,156.029907 1164.910034,194.051590 1164.668701,232.822937 
	C1164.249268,235.036041 1164.120605,236.499496 1163.991943,237.962952 
	C1162.923096,238.069824 1161.854248,238.176682 1160.384155,237.740158 
	C1159.655396,233.797653 1159.327637,230.398514 1159.158447,226.695404 
	C1159.844482,222.098953 1160.694702,217.816589 1160.829956,213.511780 
	C1161.084839,205.398392 1161.050171,197.269669 1160.890259,189.152145 
	C1160.809448,185.044083 1160.162964,180.948990 1159.832275,176.843201 
	C1159.690552,175.084320 1159.577026,173.306854 1159.665405,171.548599 
	C1160.055420,163.780228 1161.398315,155.935715 1160.697144,148.274292 
	C1160.093994,141.683411 1159.513428,135.343185 1160.408813,128.699280 
	C1161.662842,119.393669 1157.930664,115.114357 1148.838989,113.948479 
	C1145.728882,113.549675 1142.573608,113.454330 1139.489746,112.924583 
	C1138.262939,112.713860 1137.173828,111.701569 1136.488770,111.043526 
	C1142.972778,110.752914 1148.989990,110.472969 1155.007324,110.193024 
z"/>
<path fill="#BE5E28" opacity="1.000000" stroke="none" 
	d="
M554.591614,136.250519 
	C553.123230,138.072388 551.175720,139.752014 549.288391,141.496719 
	C544.142639,146.253662 544.655029,152.407043 544.940063,158.599915 
	C545.173340,163.667786 544.985046,168.755035 544.984558,173.833694 
	C544.982788,190.303040 544.950317,206.772461 544.992126,223.241699 
	C545.015625,232.518387 548.200195,235.344574 557.417542,233.993393 
	C564.577637,232.943741 571.677673,231.488480 578.819031,230.301575 
	C579.908447,230.120514 581.077087,230.416122 582.999634,230.543716 
	C582.999634,227.980881 582.962769,225.571381 583.005859,223.163284 
	C583.216370,211.393982 583.448181,199.625046 583.862549,187.588379 
	C584.153137,203.308914 584.317017,219.297440 584.211914,235.284225 
	C584.204895,236.352173 582.178101,238.303970 581.056946,238.328979 
	C569.564209,238.585281 558.062927,238.617081 546.569275,238.414169 
	C545.475037,238.394852 543.600281,236.436340 543.489136,235.247131 
	C543.103149,231.117188 543.332764,226.929504 543.332397,222.763794 
	C543.330139,197.101089 543.329041,171.438385 543.327515,145.775681 
	C543.327332,142.807693 543.327515,139.839706 543.327515,136.137985 
	C547.289001,136.137985 550.714478,136.137985 554.591614,136.250519 
z"/>
<path fill="#B95F2C" opacity="1.000000" stroke="none" 
	d="
M287.182129,226.408279 
	C288.910187,226.784760 291.234406,227.192230 292.067535,228.529007 
	C296.097107,234.994781 299.208496,236.379807 306.624207,234.680374 
	C311.429047,233.579254 316.312592,232.811447 321.174377,231.972641 
	C324.259399,231.440384 326.123962,230.418549 326.100769,226.584534 
	C325.938202,199.714767 326.059937,172.843323 325.910858,145.973419 
	C325.901672,144.313354 324.427551,142.626648 323.520264,141.017029 
	C322.756897,139.662735 321.826202,138.402756 320.948792,136.744690 
	C323.373535,136.388351 325.819122,136.388351 328.559967,136.388351 
	C328.559967,170.369064 328.559967,203.950806 328.559967,238.063843 
	C315.070953,238.063843 301.544830,238.063843 287.091095,238.063843 
	C287.091095,234.368286 287.091095,230.617935 287.182129,226.408279 
z"/>
<path fill="#F3F0D9" opacity="1.000000" stroke="none" 
	d="
M1124.403687,233.843811 
	C1124.384521,232.537155 1124.365356,231.230484 1124.592529,229.176514 
	C1124.894287,194.019760 1124.953857,159.610291 1124.979126,125.200836 
	C1124.979736,124.417465 1124.596924,123.633820 1124.393066,122.850296 
	C1124.466187,119.137497 1124.539307,115.424713 1125.142212,111.420929 
	C1126.125610,111.091576 1126.579224,111.053215 1127.456665,110.837502 
	C1128.132568,110.486237 1128.384766,110.312332 1128.636841,110.138428 
	C1129.223022,110.096832 1129.809082,110.055229 1130.759277,110.433861 
	C1131.424438,111.210945 1131.725586,111.567810 1131.971313,112.300262 
	C1130.943970,116.207817 1129.150269,119.734573 1129.127930,123.272530 
	C1128.914551,156.977173 1129.050537,190.683899 1128.929199,224.389450 
	C1128.916504,227.921799 1129.619385,230.542114 1132.956421,232.356384 
	C1132.272461,234.492172 1131.636963,236.271545 1131.001465,238.050903 
	C1129.607178,238.148254 1128.213013,238.245621 1126.274658,237.981445 
	C1125.419556,237.440720 1125.108643,237.261536 1124.797607,237.082336 
	C1124.672607,236.611786 1124.547607,236.141220 1124.624878,235.296860 
	C1124.686035,234.563293 1124.544922,234.203552 1124.403687,233.843811 
z"/>
<path fill="#ECE7D2" opacity="1.000000" stroke="none" 
	d="
M1098.669189,199.313629 
	C1095.302124,200.402832 1096.008911,202.667831 1096.504517,205.093948 
	C1097.457397,209.757675 1098.308594,214.450470 1098.963623,219.164337 
	C1099.597412,223.722885 1097.257080,227.334442 1093.268677,228.502396 
	C1089.104858,229.721786 1084.128662,230.274109 1080.823242,226.095901 
	C1077.883057,222.379364 1078.831665,218.665344 1081.009766,214.575180 
	C1082.524780,211.729782 1082.984863,207.985413 1082.855225,204.684250 
	C1082.681641,200.257324 1084.941528,197.626999 1088.512573,197.325531 
	C1091.397461,197.082001 1093.386719,192.246063 1097.046875,195.865799 
	C1097.745483,196.953354 1098.174805,197.933472 1098.669189,199.313629 
z"/>
<path fill="#C96327" opacity="1.000000" stroke="none" 
	d="
M681.957031,180.448090 
	C683.006653,182.673508 684.777832,185.332657 684.861145,188.043640 
	C685.192993,198.851746 685.009094,209.675995 684.992310,220.494232 
	C684.988892,222.704712 685.845703,223.727905 687.750732,225.380157 
	C696.281372,232.778595 706.677307,231.698196 716.559875,232.683167 
	C718.634583,232.889938 720.978516,230.396057 723.530396,229.068909 
	C723.862427,231.949905 723.862427,234.908630 723.862427,238.518906 
	C714.241394,238.518906 704.825195,238.522369 695.409058,238.518051 
	C683.089050,238.512421 683.267639,238.507172 683.088745,226.170837 
	C682.869873,211.079880 682.313416,195.993835 681.957031,180.448090 
z"/>
<path fill="#EDEBDA" opacity="1.000000" stroke="none" 
	d="
M980.951538,225.940033 
	C982.782349,226.958710 985.237488,227.534607 986.385376,229.080948 
	C989.630615,233.452484 993.257019,234.688934 998.346741,232.893921 
	C1005.562683,230.349106 1011.809937,226.661026 1016.046387,220.045029 
	C1016.641663,219.115372 1017.829041,218.564911 1019.833374,216.971680 
	C1019.676331,220.115540 1019.591736,221.809509 1019.731689,223.743073 
	C1018.788330,228.127426 1017.620361,232.272202 1015.766479,236.707977 
	C1005.772644,236.997971 996.464111,236.943985 987.157227,237.043564 
	C985.429810,237.062027 983.708923,237.698990 981.985046,238.050507 
	C980.909485,238.155289 979.833862,238.260040 978.290894,237.995209 
	C977.659851,237.357071 977.437866,237.151550 977.157471,237.009064 
	C977.278687,236.166550 977.399963,235.324051 978.029785,234.186905 
	C978.568115,233.215668 978.597778,232.539062 978.627441,231.862473 
	C978.635071,231.690399 978.642761,231.518311 979.067993,231.069977 
	C979.649048,230.191422 979.812500,229.589127 979.975952,228.986832 
	C980.013245,228.519363 980.050598,228.051910 980.388184,227.124908 
	C980.851807,226.436798 980.935791,226.182053 980.940430,225.901154 
	C980.940430,225.901154 980.979065,225.940308 980.951538,225.940033 
z"/>
<path fill="#B45925" opacity="1.000000" stroke="none" 
	d="
M868.381348,198.406219 
	C872.800781,204.436661 870.510986,211.594147 870.626282,218.515259 
	C870.694397,222.601913 870.168335,226.946106 871.420410,230.665863 
	C872.093628,232.665863 875.969849,234.802292 878.377808,234.775879 
	C885.582886,234.696838 892.937500,234.248108 899.900879,232.565964 
	C902.979980,231.822144 905.257385,227.759735 908.185547,225.082031 
	C910.040039,238.618805 910.040039,238.620667 896.423401,238.622467 
	C888.428040,238.623520 880.430908,238.517532 872.438293,238.663742 
	C869.226807,238.722519 868.046753,237.643494 868.098816,234.339294 
	C868.285156,222.516098 868.225464,210.689011 868.381348,198.406219 
z"/>
<path fill="#E9E8D8" opacity="1.000000" stroke="none" 
	d="
M1131.453125,238.185822 
	C1131.636963,236.271545 1132.272461,234.492172 1133.361328,232.356628 
	C1139.051880,233.521301 1143.373779,231.151367 1148.002808,229.174957 
	C1151.365234,227.739349 1155.313110,227.675095 1159.000000,226.999390 
	C1159.327637,230.398514 1159.655396,233.797653 1159.996094,237.613159 
	C1150.640991,238.126617 1141.272949,238.223663 1131.453125,238.185822 
z"/>
<path fill="#BB5B23" opacity="1.000000" stroke="none" 
	d="
M222.637115,136.256256 
	C222.225601,140.202011 221.011124,143.999359 220.654556,147.875610 
	C220.073822,154.188736 218.995331,160.739685 220.070419,166.848206 
	C221.352448,174.132446 223.297653,180.990555 219.561066,188.061951 
	C218.684998,189.719864 218.635254,191.814438 217.908234,193.878296 
	C217.440079,181.647125 217.241364,169.246048 217.110977,156.844269 
	C217.055267,151.545639 217.380234,146.232254 217.086899,140.950317 
	C216.862488,136.909012 218.339462,135.433990 222.637115,136.256256 
z"/>
<path fill="#B15A2C" opacity="1.000000" stroke="none" 
	d="
M292.668945,136.265228 
	C292.051727,141.539688 290.707062,146.658875 290.095337,151.864212 
	C289.779022,154.555923 290.733368,157.405182 291.175476,160.173386 
	C291.331451,161.149887 291.962372,162.122330 291.881348,163.053543 
	C291.207977,170.792191 290.454529,178.524704 289.594879,186.244568 
	C289.527893,186.846237 288.472473,187.337860 287.502258,187.973099 
	C287.121826,172.316360 287.258118,156.564941 287.014435,140.819427 
	C286.949280,136.608765 288.528046,135.498825 292.668945,136.265228 
z"/>
<path fill="#D76221" opacity="1.000000" stroke="none" 
	d="
M257.031708,186.991470 
	C253.203171,186.218918 252.008286,183.331238 252.069336,180.019226 
	C252.178421,174.101807 252.926590,168.192490 252.947708,162.278152 
	C252.968552,156.447235 252.419418,150.614258 252.419098,144.388702 
	C254.258972,145.022369 255.800140,146.049545 257.341309,147.076736 
	C257.407898,150.158325 257.474487,153.239899 257.303345,157.138275 
	C257.171509,164.572327 257.277344,171.189590 257.383179,177.806839 
	C257.568420,179.592026 257.753662,181.377197 257.676392,183.833221 
	C257.286499,185.333191 257.159088,186.162338 257.031708,186.991470 
z"/>
<path fill="#CE6633" opacity="1.000000" stroke="none" 
	d="
M808.851929,232.423096 
	C820.938354,237.253448 832.599548,235.100800 844.266541,230.650894 
	C845.537842,230.166031 847.457397,231.381058 849.402954,231.890991 
	C849.836487,232.956390 849.995728,233.936356 850.034180,234.921036 
	C850.065918,235.736237 849.955139,236.556976 849.854431,238.287277 
	C845.922668,238.287277 842.022888,238.283371 838.123108,238.288071 
	C830.183777,238.297623 822.236206,238.099442 814.308472,238.409149 
	C810.016235,238.576828 808.008362,237.328049 808.851929,232.423096 
z"/>
<path fill="#CB652C" opacity="1.000000" stroke="none" 
	d="
M98.963478,153.992905 
	C98.988365,158.070114 98.802223,162.163101 99.105331,166.219528 
	C99.345062,169.427765 99.963898,172.652359 100.821747,175.757126 
	C101.678200,178.856873 102.943810,181.810532 100.030746,184.936859 
	C93.353897,178.969528 91.692482,164.049713 97.019638,154.262253 
	C98.060013,153.996155 98.511742,153.994522 98.963478,153.992905 
z"/>
<path fill="#CB652C" opacity="1.000000" stroke="none" 
	d="
M1189.637695,145.975052 
	C1189.618286,146.935562 1189.251831,147.982803 1188.928711,149.043182 
	C1187.611938,153.363083 1185.878174,157.611740 1185.105591,162.027939 
	C1184.064087,167.980240 1183.766479,174.062714 1183.099731,180.463623 
	C1177.788086,167.924683 1178.699585,156.122986 1189.637695,145.975052 
z"/>
<path fill="#CB652C" opacity="1.000000" stroke="none" 
	d="
M1318.606201,146.883545 
	C1318.929932,147.083115 1319.048584,147.461166 1318.931519,147.740509 
	C1315.969971,154.809830 1313.102539,161.923889 1309.879761,168.872925 
	C1309.370972,169.970215 1307.237793,170.314133 1305.473389,171.015137 
	C1306.468384,161.359192 1311.217163,153.548294 1318.606201,146.883545 
z"/>
<path fill="#988477" opacity="1.000000" stroke="none" 
	d="
M1124.229004,123.303841 
	C1124.596924,123.633820 1124.979736,124.417465 1124.979126,125.200836 
	C1124.953857,159.610291 1124.894287,194.019760 1124.611572,228.784790 
	C1124.251465,228.160400 1124.002441,227.180435 1124.002563,226.200500 
	C1124.008789,192.052795 1124.038574,157.905090 1124.229004,123.303841 
z"/>
<path fill="#BB5B23" opacity="1.000000" stroke="none" 
	d="
M257.487915,146.633240 
	C255.800140,146.049545 254.258972,145.022369 252.366287,143.980560 
	C249.868729,142.643616 247.709625,141.341904 245.581070,139.991989 
	C244.086838,139.044327 242.634262,138.030960 241.055145,136.743713 
	C243.231827,136.315536 245.515656,136.100815 247.801193,136.081055 
	C258.059662,135.992401 258.059845,136.012405 257.487915,146.633240 
z"/>
<path fill="#B45925" opacity="1.000000" stroke="none" 
	d="
M868.308899,157.403717 
	C869.196594,158.297165 870.690002,159.678482 870.640991,161.002670 
	C870.310547,169.925827 869.653137,178.836868 868.779175,187.902817 
	C868.371582,177.990936 868.286316,167.928055 868.308899,157.403717 
z"/>
<path fill="#C96327" opacity="1.000000" stroke="none" 
	d="
M723.952637,180.548477 
	C723.254456,179.836212 721.993286,178.596695 722.110413,177.504990 
	C723.354248,165.909668 717.964355,156.494431 712.463318,147.081497 
	C711.894287,146.107742 711.485596,145.040268 710.988281,143.670074 
	C719.904175,151.043152 722.358582,161.668060 723.968872,172.612976 
	C724.328186,175.055374 724.026794,177.595001 723.952637,180.548477 
z"/>
<path fill="#BE5E28" opacity="1.000000" stroke="none" 
	d="
M597.577271,138.894379 
	C595.406921,142.325470 593.148315,146.045792 590.243591,149.164291 
	C589.082275,150.410995 586.505981,150.594482 584.552307,150.664780 
	C584.078186,150.681839 583.251221,148.377029 583.051636,147.068878 
	C582.554504,143.811523 582.325134,140.513336 581.967041,136.836304 
	C582.789124,137.372772 584.248718,138.237000 584.359619,139.248962 
	C584.685486,142.223236 584.475830,145.256180 584.475830,148.266144 
	C584.963379,148.338272 585.450928,148.410385 585.938538,148.482513 
	C589.702271,145.302383 593.466003,142.122269 597.577271,138.894379 
z"/>
<path fill="#ECE7D4" opacity="1.000000" stroke="none" 
	d="
M982.371826,238.174683 
	C983.708923,237.698990 985.429810,237.062027 987.157227,237.043564 
	C996.464111,236.943985 1005.772644,236.997971 1015.550537,237.001587 
	C1014.461243,237.448318 1012.906128,238.258896 1011.342041,238.276566 
	C1001.815369,238.384186 992.286682,238.311447 982.371826,238.174683 
z"/>
<path fill="#C96327" opacity="1.000000" stroke="none" 
	d="
M99.137192,153.694717 
	C98.511742,153.994522 98.060013,153.996155 97.268967,153.996765 
	C99.403305,147.628647 104.675484,144.158554 110.665504,141.020844 
	C109.975304,147.810562 103.492531,149.519196 99.137192,153.694717 
z"/>
<path fill="#C96327" opacity="1.000000" stroke="none" 
	d="
M158.488678,134.836914 
	C148.854141,135.378998 138.907578,135.702148 128.501801,136.022369 
	C137.950027,132.601089 148.056412,133.460724 158.488678,134.836914 
z"/>
<path fill="#BB5B23" opacity="1.000000" stroke="none" 
	d="
M221.659500,218.246185 
	C226.888794,219.727768 228.503342,223.948547 229.091797,229.253082 
	C226.621094,225.945435 224.122849,222.262283 221.659500,218.246185 
z"/>
<path fill="#B45925" opacity="1.000000" stroke="none" 
	d="
M908.562988,142.740204 
	C906.932434,141.092209 905.460938,139.094864 903.952393,136.759827 
	C905.359680,136.422134 906.804077,136.422134 908.722046,136.422134 
	C908.722046,138.565552 908.722046,140.478195 908.562988,142.740204 
z"/>
<path fill="#D3D4C0" opacity="1.000000" stroke="none" 
	d="
M1132.026855,111.924675 
	C1131.725586,111.567810 1131.424438,111.210945 1131.045166,110.508858 
	C1138.674438,110.104912 1146.381836,110.046196 1154.548218,110.090248 
	C1148.989990,110.472969 1142.972778,110.752914 1136.139648,111.027969 
	C1134.224731,111.323601 1133.125854,111.624138 1132.026855,111.924675 
z"/>
<path fill="#BB5B23" opacity="1.000000" stroke="none" 
	d="
M275.624817,205.385773 
	C273.832001,210.085236 271.018280,208.397552 268.047974,205.829620 
	C270.352478,205.439453 272.764038,205.382111 275.624817,205.385773 
z"/>
<path fill="#BB5B23" opacity="1.000000" stroke="none" 
	d="
M257.517120,177.373383 
	C257.277344,171.189590 257.171509,164.572327 257.199646,157.596161 
	C257.439423,163.804794 257.545258,170.372360 257.517120,177.373383 
z"/>
<path fill="#BB5B23" opacity="1.000000" stroke="none" 
	d="
M218.043823,204.430664 
	C219.209732,207.812408 220.313126,211.617386 221.263870,215.693176 
	C220.067917,212.260635 219.024612,208.557266 218.043823,204.430664 
z"/>
<path fill="#B45925" opacity="1.000000" stroke="none" 
	d="
M885.643616,136.314819 
	C884.077087,140.170181 881.714050,139.909286 879.020752,136.748169 
	C881.019714,136.342728 883.114868,136.264923 885.643616,136.314819 
z"/>
<path fill="#BE5E28" opacity="1.000000" stroke="none" 
	d="
M564.631592,136.284454 
	C563.557983,140.959061 561.376892,139.306290 559.041260,136.720459 
	C560.704041,136.313446 562.455444,136.239960 564.631592,136.284454 
z"/>
<path fill="#C6642C" opacity="1.000000" stroke="none" 
	d="
M483.000854,174.384460 
	C486.959839,175.244797 485.866028,178.535706 485.951477,181.769958 
	C484.947784,179.723175 483.974396,177.240692 483.000854,174.384460 
z"/>
<path fill="#BB5B23" opacity="1.000000" stroke="none" 
	d="
M257.270538,187.252716 
	C257.159088,186.162338 257.286499,185.333191 257.639465,184.282013 
	C258.410919,186.798416 258.956787,189.536865 259.442078,192.660553 
	C258.757477,191.201843 258.133423,189.357895 257.270538,187.252716 
z"/>
<path fill="#B45925" opacity="1.000000" stroke="none" 
	d="
M908.650940,220.436295 
	C908.403992,216.851944 908.285767,212.832779 908.355042,208.473343 
	C908.621582,212.089203 908.700623,216.045349 908.650940,220.436295 
z"/>
<path fill="#B45925" opacity="1.000000" stroke="none" 
	d="
M871.685425,136.257141 
	C870.995239,137.737320 869.921936,139.103409 868.658691,140.691986 
	C868.136475,138.565750 867.168823,135.839722 871.685425,136.257141 
z"/>
<path fill="#B45925" opacity="1.000000" stroke="none" 
	d="
M909.405151,191.062225 
	C909.621460,188.739746 910.070312,186.107452 910.814331,183.234299 
	C910.618958,185.579758 910.128296,188.166077 909.405151,191.062225 
z"/>
<path fill="#C96327" opacity="1.000000" stroke="none" 
	d="
M125.565575,136.227173 
	C123.644913,136.878983 121.341789,137.469284 118.657425,138.079559 
	C120.578499,137.454910 122.880806,136.810287 125.565575,136.227173 
z"/>
<path fill="#B45925" opacity="1.000000" stroke="none" 
	d="
M911.562012,148.439209 
	C911.116150,149.194412 910.271973,150.002853 909.427856,150.811310 
	C908.990356,149.962555 908.552795,149.113831 908.208557,147.883392 
	C909.255859,147.831955 910.209778,148.162216 911.562012,148.439209 
z"/>
<path fill="#BB5B23" opacity="1.000000" stroke="none" 
	d="
M260.861450,197.670898 
	C260.398468,197.131454 259.935974,196.273682 259.669922,195.229385 
	C260.198242,195.812759 260.530090,196.582672 260.861450,197.670898 
z"/>
<path fill="#C96327" opacity="1.000000" stroke="none" 
	d="
M680.281189,176.299057 
	C680.842285,176.859863 681.391724,177.740265 681.907593,178.980331 
	C681.339172,178.432861 680.804321,177.525757 680.281189,176.299057 
z"/>
<path fill="#D3D4C0" opacity="1.000000" stroke="none" 
	d="
M1164.372314,237.846802 
	C1164.120605,236.499496 1164.249268,235.036041 1164.602905,233.287613 
	C1164.802734,234.578644 1164.777588,236.154648 1164.372314,237.846802 
z"/>
<path fill="#988477" opacity="1.000000" stroke="none" 
	d="
M1127.032837,111.014854 
	C1126.579224,111.053215 1126.125610,111.091576 1125.335938,111.061272 
	C1125.573853,110.592010 1126.147827,110.191422 1126.903320,110.199860 
	C1127.084839,110.608887 1127.032837,111.014854 1127.032837,111.014854 
z"/>
<path fill="#D3D4C0" opacity="1.000000" stroke="none" 
	d="
M1164.908203,117.614670 
	C1164.670044,116.832397 1164.529053,115.656563 1164.595825,114.242233 
	C1164.870850,115.076210 1164.938232,116.148659 1164.908203,117.614670 
z"/>
<path fill="#ECE7D4" opacity="1.000000" stroke="none" 
	d="
M978.404175,232.057419 
	C978.597778,232.539062 978.568115,233.215668 978.234375,233.933609 
	C978.013916,233.400772 978.097412,232.826569 978.404175,232.057419 
z"/>
<path fill="#ECE7D2" opacity="1.000000" stroke="none" 
	d="
M1106.787964,220.721497 
	C1106.369385,220.441864 1105.979492,219.881073 1105.798096,219.157776 
	C1106.276489,219.476974 1106.546631,219.958664 1106.787964,220.721497 
z"/>
<path fill="#B15A2C" opacity="1.000000" stroke="none" 
	d="
M286.923126,188.415344 
	C286.958160,188.972351 286.806732,189.767212 286.430176,190.771179 
	C286.382263,190.204605 286.559479,189.428879 286.923126,188.415344 
z"/>
<path fill="#ECE7D4" opacity="1.000000" stroke="none" 
	d="
M979.736938,229.160690 
	C979.812500,229.589127 979.649048,230.191422 979.258789,230.895721 
	C979.187378,230.443344 979.342651,229.888947 979.736938,229.160690 
z"/>
<path fill="#B15A2C" opacity="1.000000" stroke="none" 
	d="
M283.863373,196.418762 
	C283.839661,197.016281 283.580200,197.804932 283.023438,198.720551 
	C283.026611,198.101639 283.327118,197.355759 283.863373,196.418762 
z"/>
<path fill="#BE5E28" opacity="1.000000" stroke="none" 
	d="
M599.599487,137.743225 
	C599.446411,138.094315 598.988037,138.493484 598.202148,138.888733 
	C598.347778,138.520309 598.820984,138.155792 599.599487,137.743225 
z"/>
<path fill="#C96327" opacity="1.000000" stroke="none" 
	d="
M117.715218,138.153442 
	C117.518272,138.440903 117.032524,138.704575 116.259705,138.967224 
	C116.457230,138.687347 116.941826,138.408508 117.715218,138.153442 
z"/>
<path fill="#C6642C" opacity="1.000000" stroke="none" 
	d="
M481.624146,172.399170 
	C481.960480,172.529678 482.437866,172.929459 482.954468,173.659302 
	C482.584198,173.549072 482.174713,173.108765 481.624146,172.399170 
z"/>
<path fill="#C96327" opacity="1.000000" stroke="none" 
	d="
M115.633591,138.951035 
	C115.381439,139.270844 114.784248,139.578598 113.828697,139.863861 
	C114.076401,139.540573 114.682472,139.239777 115.633591,138.951035 
z"/>
<path fill="#B15A2C" opacity="1.000000" stroke="none" 
	d="
M282.560852,198.817169 
	C282.574493,199.139847 282.352173,199.538101 281.906128,200.023041 
	C281.896545,199.704071 282.110718,199.298416 282.560852,198.817169 
z"/>
<path fill="#D3D4C0" opacity="1.000000" stroke="none" 
	d="
M1164.880737,111.701469 
	C1164.520996,111.574066 1164.255493,111.139313 1163.980347,110.440659 
	C1164.305420,110.582542 1164.640259,110.988327 1164.880737,111.701469 
z"/>
<path fill="#BB5B23" opacity="1.000000" stroke="none" 
	d="
M262.380920,199.814697 
	C262.025513,199.745132 261.622803,199.418869 261.197510,198.817780 
	C261.561188,198.881302 261.947418,199.219666 262.380920,199.814697 
z"/>
<path fill="#B15A2C" opacity="1.000000" stroke="none" 
	d="
M285.511902,192.587402 
	C285.599579,192.909088 285.470123,193.364212 285.133484,193.955704 
	C285.049133,193.634979 285.171967,193.177902 285.511902,192.587402 
z"/>
<path fill="#ECE7D4" opacity="1.000000" stroke="none" 
	d="
M977.083130,237.305328 
	C977.437866,237.151550 977.659851,237.357071 977.913330,237.836487 
	C977.671814,237.898773 977.340271,237.750198 977.083130,237.305328 
z"/>
<path fill="#988477" opacity="1.000000" stroke="none" 
	d="
M1124.282593,234.178772 
	C1124.544922,234.203552 1124.686035,234.563293 1124.640625,235.043121 
	C1124.356689,234.946716 1124.259155,234.730225 1124.282593,234.178772 
z"/>
<path fill="#E9E8D8" opacity="1.000000" stroke="none" 
	d="
M1124.803467,237.423019 
	C1125.108643,237.261536 1125.419556,237.440720 1125.871338,237.854645 
	C1125.611206,237.980804 1125.210327,237.872253 1124.803467,237.423019 
z"/>
<path fill="#BB5B23" opacity="1.000000" stroke="none" 
	d="
M230.793686,231.388367 
	C230.994278,231.283737 231.336197,231.430084 231.829727,231.817581 
	C231.632553,231.918930 231.283783,231.779144 230.793686,231.388367 
z"/>
<path fill="#BB5B23" opacity="1.000000" stroke="none" 
	d="
M229.447296,230.114029 
	C229.608551,230.024292 229.744705,230.127136 229.911896,230.381180 
	C229.736649,230.561203 229.563049,230.485962 229.447296,230.114029 
z"/>
<path fill="#ECE7D4" opacity="1.000000" stroke="none" 
	d="
M980.755737,226.022339 
	C980.935791,226.182053 980.851807,226.436798 980.543091,226.807663 
	C980.249573,226.636887 980.307373,226.368088 980.755737,226.022339 
z"/>
<path fill="#B95F2C" opacity="1.000000" stroke="none" 
	d="
M286.502289,223.380005 
	C286.650085,223.199860 286.848236,223.333099 287.002289,223.703522 
	C287.033478,223.828903 286.627930,223.581573 286.502289,223.380005 
z"/>
<path fill="#BB5B23" opacity="1.000000" stroke="none" 
	d="
M277.798218,204.150803 
	C277.934479,204.376114 277.762421,204.629074 277.287537,204.914642 
	C277.130188,204.678024 277.298584,204.421768 277.798218,204.150803 
z"/>
<path fill="#BB5B23" opacity="1.000000" stroke="none" 
	d="
M265.738586,203.786942 
	C265.514496,203.921143 265.319061,203.783279 265.089783,203.416595 
	C265.321442,203.199905 265.558533,203.308945 265.738586,203.786942 
z"/>
<path fill="#C6642C" opacity="1.000000" stroke="none" 
	d="
M525.353760,164.744171 
	C525.158081,164.743668 524.977051,164.475494 524.968872,164.098999 
	C525.217224,164.152618 525.292786,164.314575 525.353760,164.744171 
z"/>
<path fill="#B45925" opacity="1.000000" stroke="none" 
	d="
M913.790405,146.105988 
	C913.955872,146.332169 913.809998,146.584244 913.380981,146.889969 
	C913.142395,146.644012 913.269470,146.373428 913.790405,146.105988 
z"/>
<path fill="#D3D4C0" opacity="1.000000" stroke="none" 
	d="
M1127.456665,110.837502 
	C1127.032837,111.014854 1127.084839,110.608887 1127.038086,110.409676 
	C1127.358398,110.100540 1127.725586,109.990623 1128.364746,110.009567 
	C1128.384766,110.312332 1128.132568,110.486237 1127.456665,110.837502 
z"/>
<path fill="#050201" opacity="1.000000" stroke="none" 
	d="
M787.720215,205.564682 
	C775.995422,199.897034 777.142822,177.004807 783.929688,170.841431 
	C790.479431,164.893417 799.006348,165.158264 804.467285,171.999664 
	C810.172363,179.146774 810.203979,195.217758 804.346436,202.110382 
	C799.910339,207.330383 794.251038,207.871857 787.720215,205.564682 
z"/>
<path fill="#090302" opacity="1.000000" stroke="none" 
	d="
M1345.284790,173.704727 
	C1348.825195,166.568176 1353.511475,163.244720 1358.641113,163.898788 
	C1364.695190,164.670715 1369.380615,169.744873 1371.336914,178.121429 
	C1363.265259,178.121429 1355.322998,178.232925 1347.395142,177.945847 
	C1346.617920,177.917694 1345.929443,175.439667 1345.284790,173.704727 
z"/>
<path fill="#0D0C0C" opacity="1.000000" stroke="none" 
	d="
M1035.975586,189.766907 
	C1035.391724,187.831314 1034.651001,185.774811 1035.139282,184.070267 
	C1037.730835,175.020996 1040.606934,166.052399 1043.458130,157.079269 
	C1043.781860,156.060699 1044.567627,155.188980 1045.541138,153.588593 
	C1048.929932,165.835831 1052.112183,177.336029 1055.563354,189.808411 
	C1048.548340,189.808411 1042.467041,189.808411 1035.975586,189.766907 
z"/>
<path fill="#EDE8D3" opacity="1.000000" stroke="none" 
	d="
M1131.971313,112.300262 
	C1133.125854,111.624138 1134.224731,111.323601 1135.672852,111.038635 
	C1137.173828,111.701569 1138.262939,112.713860 1139.489746,112.924583 
	C1142.573608,113.454330 1145.728882,113.549675 1148.838989,113.948479 
	C1157.930664,115.114357 1161.662842,119.393669 1160.408813,128.699280 
	C1159.513428,135.343185 1160.093994,141.683411 1160.697144,148.274292 
	C1161.398315,155.935715 1160.055420,163.780228 1159.665405,171.548599 
	C1159.577026,173.306854 1159.690552,175.084320 1159.832275,176.843201 
	C1160.162964,180.948990 1160.809448,185.044083 1160.890259,189.152145 
	C1161.050171,197.269669 1161.084839,205.398392 1160.829956,213.511780 
	C1160.694702,217.816589 1159.844482,222.098953 1159.158447,226.695404 
	C1155.313110,227.675095 1151.365234,227.739349 1148.002808,229.174957 
	C1143.373779,231.151367 1139.051880,233.521301 1133.409790,232.000214 
	C1129.619385,230.542114 1128.916504,227.921799 1128.929199,224.389450 
	C1129.050537,190.683899 1128.914551,156.977173 1129.127930,123.272530 
	C1129.150269,119.734573 1130.943970,116.207817 1131.971313,112.300262 
z"/>
</svg>