<svg xmlns="http://www.w3.org/2000/svg" width="2303" height="244" viewBox="0 0 2303 244" version="1.1"><path d="M 1614.571 21.250 C 1613.658 24.138, 1612.277 27.850, 1611.502 29.500 C 1610.727 31.150, 1609.827 34.188, 1609.501 36.250 C 1609.176 38.313, 1608.453 40, 1607.896 40 C 1607.338 40, 1607.160 40.450, 1607.500 41 C 1607.840 41.550, 1607.633 42, 1607.040 42 C 1606.385 42, 1606.197 43.080, 1606.562 44.750 L 1607.162 47.500 1606.096 46 L 1605.031 44.500 1605.015 47.750 C 1605.007 49.538, 1604.611 51, 1604.136 51 C 1603.251 51, 1595.641 69.495, 1594.408 74.641 C 1594.032 76.214, 1593.470 77.942, 1593.159 78.482 C 1592.849 79.023, 1592.507 80.148, 1592.400 80.982 C 1592.099 83.319, 1589.601 89.426, 1588.665 90.112 C 1588.205 90.448, 1587.891 91.123, 1587.966 91.612 C 1588.041 92.100, 1587.806 93.400, 1587.443 94.500 C 1587.080 95.600, 1586.862 97.108, 1586.958 97.850 C 1587.055 98.593, 1586.701 98.933, 1586.172 98.606 C 1584.942 97.846, 1583.884 100.533, 1584.638 102.500 C 1584.955 103.325, 1584.768 104, 1584.224 104 C 1583.679 104, 1582.990 104.787, 1582.694 105.750 C 1582.397 106.713, 1580.510 111.775, 1578.500 117 C 1576.491 122.225, 1573.931 129.425, 1572.811 133 C 1571.691 136.575, 1570.263 139.831, 1569.638 140.235 C 1569.012 140.639, 1568.893 140.976, 1569.372 140.985 C 1569.852 140.993, 1569.778 141.563, 1569.207 142.250 C 1568.637 142.938, 1568.132 143.838, 1568.085 144.250 C 1568.038 144.662, 1567.963 145.113, 1567.917 145.250 C 1567.871 145.387, 1567.714 146.602, 1567.569 147.949 C 1567.424 149.296, 1566.812 150.563, 1566.209 150.764 C 1565.606 150.965, 1565.360 151.775, 1565.663 152.565 C 1565.966 153.354, 1565.752 154, 1565.186 154 C 1564.362 154, 1563.290 156.813, 1562.521 161 C 1562.470 161.275, 1561.806 162.625, 1561.045 164 C 1560.283 165.375, 1557.534 172.660, 1554.936 180.189 C 1552.337 187.718, 1549.901 193.568, 1549.522 193.189 C 1549.143 192.810, 1548.924 192.950, 1549.035 193.500 C 1549.146 194.050, 1549.155 194.725, 1549.055 195 C 1548.954 195.275, 1548.722 197.048, 1548.538 198.939 C 1548.353 200.831, 1547.426 202.947, 1546.476 203.641 C 1545.467 204.379, 1545.004 205.569, 1545.363 206.504 C 1545.701 207.384, 1545.618 207.882, 1545.180 207.611 C 1544.411 207.136, 1537.414 225.414, 1536.800 229.500 L 1536.500 231.500 1568.941 231.500 L 1601.382 231.500 1603.104 226 C 1604.052 222.975, 1606.246 216.900, 1607.980 212.500 C 1609.714 208.100, 1611.606 203.237, 1612.184 201.694 L 1613.235 198.887 1649.368 199.194 C 1675.906 199.419, 1686.078 199.831, 1687.678 200.747 C 1689.048 201.531, 1690.445 204.017, 1691.441 207.446 C 1692.313 210.445, 1693.444 213.157, 1693.955 213.472 C 1694.466 213.788, 1695.181 215.949, 1695.543 218.273 C 1695.906 220.598, 1697.175 224.525, 1698.364 227 L 1700.526 231.500 1732.449 231.764 C 1751.129 231.919, 1764.756 231.644, 1765.299 231.101 C 1765.870 230.530, 1765.220 228.045, 1763.614 224.648 C 1762.176 221.610, 1761 218.587, 1761 217.930 C 1761 217.273, 1760.108 215.293, 1759.018 213.530 C 1757.929 211.766, 1756.837 209.238, 1756.593 207.912 C 1756.348 206.585, 1756.059 205.387, 1755.949 205.250 C 1755.840 205.113, 1755.666 204.662, 1755.564 204.250 C 1755.462 203.838, 1754.600 201.713, 1753.648 199.529 C 1752.696 197.346, 1751.415 193.521, 1750.800 191.029 C 1750.185 188.538, 1748.853 184.932, 1747.841 183.015 C 1746.828 181.098, 1746 178.990, 1746 178.330 C 1746 177.670, 1745.475 175.863, 1744.834 174.315 C 1743.527 171.160, 1743.304 170.461, 1743.125 168.941 C 1743.056 168.359, 1742.480 168.203, 1741.845 168.595 C 1741.143 169.030, 1740.962 168.871, 1741.383 168.189 C 1741.764 167.573, 1741.127 165.210, 1739.968 162.937 C 1738.809 160.665, 1738.112 158.151, 1738.419 157.351 C 1738.726 156.551, 1738.576 156.144, 1738.086 156.447 C 1737.080 157.069, 1735.003 151.800, 1734.993 148.601 C 1734.990 147.445, 1734.129 145.198, 1733.080 143.607 C 1732.031 142.016, 1731.435 140.030, 1731.756 139.193 C 1732.138 138.199, 1731.935 137.922, 1731.170 138.395 C 1730.435 138.849, 1730 138.419, 1730 137.237 C 1730 134.400, 1726.940 126, 1725.906 126 C 1725.408 126, 1725 124.942, 1725 123.649 C 1725 120.241, 1722.958 114.908, 1721.903 115.560 C 1720.997 116.120, 1720.850 115.642, 1720.496 110.995 C 1720.391 109.618, 1719.550 107.030, 1718.627 105.245 C 1717.704 103.460, 1717.298 101.993, 1717.724 101.985 C 1718.151 101.976, 1717.982 101.639, 1717.348 101.235 C 1716.715 100.831, 1713.940 93.750, 1711.183 85.500 C 1704.958 66.874, 1702.450 60.247, 1700.935 58.422 C 1700.286 57.640, 1700.090 57, 1700.500 57 C 1700.910 57, 1700.744 56.396, 1700.131 55.658 C 1699.519 54.920, 1699.256 54.077, 1699.548 53.785 C 1699.840 53.493, 1698.943 51.118, 1697.555 48.507 C 1696.166 45.896, 1695.275 43.364, 1695.574 42.880 C 1695.873 42.396, 1695.593 42, 1694.952 42 C 1694.311 42, 1694.024 41.380, 1694.315 40.622 C 1694.606 39.864, 1694.479 38.851, 1694.033 38.372 C 1693.586 37.892, 1691.794 33.225, 1690.050 28 C 1688.306 22.775, 1686.145 17.938, 1685.248 17.250 C 1684.018 16.307, 1675.343 16, 1649.924 16 L 1616.230 16 1614.571 21.250 M 1787.896 21.250 C 1787.838 24.138, 1787.826 72.625, 1787.870 129 L 1787.948 231.500 1820.974 231.763 L 1854 232.027 1854 124.013 L 1854 16 1821 16 L 1788 16 1787.896 21.250 M 1647.544 96.250 C 1646.066 100.237, 1644.217 106.254, 1643.437 109.619 C 1642.656 112.985, 1641.341 117.035, 1640.515 118.619 C 1639.688 120.204, 1639.001 122.400, 1638.986 123.500 C 1638.972 124.600, 1637.619 129.303, 1635.980 133.952 C 1634.341 138.601, 1633 144.338, 1633 146.702 L 1633 151 1649.750 150.985 C 1658.963 150.976, 1667.173 150.544, 1667.996 150.023 L 1669.493 149.078 1666.734 138.789 C 1662.757 123.956, 1660.114 114.411, 1657.934 107 C 1656.882 103.425, 1655.329 97.912, 1654.483 94.750 C 1653.568 91.333, 1652.394 89, 1651.588 89 C 1650.818 89, 1649.069 92.135, 1647.544 96.250" stroke="none" fill="#ede8d4" fill-rule="evenodd"/><path d="M 1617 11.698 C 1613.672 12.343, 1611.327 14.557, 1610.512 17.824 C 1610.145 19.296, 1609.263 21.175, 1608.554 22 C 1607.844 22.825, 1607.016 25.457, 1606.713 27.848 C 1606.411 30.244, 1605.229 33.192, 1604.082 34.413 C 1602.571 36.021, 1602 37.942, 1602 41.421 L 1602 46.212 1599.570 48.124 C 1597.747 49.558, 1596.968 51.405, 1596.455 55.518 C 1596.078 58.533, 1595.468 61, 1595.100 61 C 1593.636 61, 1591 67.014, 1591 70.355 C 1591 72.305, 1590.428 74.260, 1589.729 74.700 C 1587.931 75.832, 1586 80.592, 1586 83.894 C 1586 85.434, 1585.103 87.728, 1584.007 88.992 C 1582.052 91.246, 1580.017 96.910, 1580.006 100.128 C 1580.003 101.023, 1579.399 102.254, 1578.665 102.863 C 1577.930 103.473, 1576.772 105.890, 1576.091 108.236 C 1575.409 110.581, 1573.997 114.144, 1572.952 116.153 C 1571.907 118.162, 1570.565 121.980, 1569.969 124.637 C 1569.374 127.294, 1568.285 130.150, 1567.550 130.984 C 1566.815 131.818, 1565.646 135.081, 1564.951 138.236 C 1564.256 141.391, 1562.858 144.723, 1561.844 145.641 C 1560.700 146.676, 1560 148.682, 1560 150.923 C 1560 153.129, 1559.026 155.968, 1557.500 158.215 C 1556.060 160.334, 1555 163.318, 1555 165.253 C 1555 167.218, 1554.015 169.947, 1552.626 171.830 C 1551.285 173.646, 1549.961 177.236, 1549.585 180.071 C 1549.201 182.965, 1548.320 185.324, 1547.507 185.636 C 1546.731 185.933, 1545.797 188.168, 1545.433 190.600 C 1545.068 193.033, 1543.921 196.102, 1542.885 197.419 C 1541.749 198.863, 1541 201.412, 1541 203.831 C 1541 206.661, 1540.258 208.728, 1538.487 210.834 C 1537.104 212.477, 1535.597 215.834, 1535.137 218.294 C 1534.678 220.755, 1533.334 224.127, 1532.151 225.788 C 1529.396 229.657, 1529.426 232.139, 1532.250 234.009 L 1534.500 235.500 1564 235.833 C 1580.225 236.016, 1595.835 235.874, 1598.689 235.518 L 1603.878 234.871 1605.916 231.686 C 1607.037 229.934, 1608.381 227.825, 1608.902 227 C 1609.424 226.175, 1610.403 223.326, 1611.078 220.669 C 1611.753 218.011, 1612.956 215.187, 1613.752 214.391 C 1614.547 213.596, 1615.437 211.158, 1615.731 208.973 L 1616.263 205 1650.446 205 L 1684.630 205 1686.315 208.534 C 1687.242 210.478, 1688 212.978, 1688 214.091 C 1688 215.204, 1689.050 218.002, 1690.334 220.308 C 1691.617 222.613, 1692.940 226.192, 1693.273 228.260 C 1693.605 230.328, 1694.660 232.803, 1695.617 233.760 L 1697.356 235.500 1731.522 235.500 L 1765.689 235.500 1768.437 234.031 L 1771.186 232.563 1770.562 228.531 C 1770.219 226.314, 1768.828 222.205, 1767.469 219.400 C 1766.111 216.596, 1765 213.530, 1765 212.588 C 1765 211.647, 1763.926 208.542, 1762.613 205.688 C 1761.300 202.835, 1759.915 199.150, 1759.535 197.500 C 1759.155 195.850, 1757.755 192.326, 1756.422 189.668 C 1755.090 187.010, 1754 183.900, 1754 182.756 C 1754 181.612, 1752.938 178.836, 1751.640 176.588 C 1750.343 174.340, 1748.982 170.557, 1748.618 168.182 C 1748.235 165.691, 1746.906 162.733, 1745.477 161.192 C 1743.729 159.306, 1743 157.383, 1743 154.655 C 1743 151.990, 1742.223 149.866, 1740.500 147.818 C 1738.688 145.664, 1738 143.672, 1738 140.578 C 1738 137.615, 1737.403 135.770, 1736.048 134.543 C 1734.961 133.559, 1733.593 130.277, 1732.963 127.138 C 1732.339 124.037, 1731.246 121.039, 1730.533 120.476 C 1729.819 119.913, 1728.701 116.875, 1728.047 113.727 C 1727.393 110.578, 1726.206 107.349, 1725.409 106.551 C 1724.611 105.754, 1723.589 103.166, 1723.137 100.801 C 1722.686 98.435, 1721.345 94.707, 1720.158 92.515 C 1718.971 90.323, 1717.986 87.398, 1717.969 86.015 C 1717.952 84.632, 1716.829 81.700, 1715.474 79.500 C 1714.119 77.300, 1713.008 74.371, 1713.005 72.992 C 1713.002 71.613, 1711.930 68.463, 1710.623 65.992 C 1709.315 63.521, 1707.913 59.925, 1707.507 58 C 1707.101 56.075, 1706.375 54.009, 1705.893 53.408 C 1705.412 52.808, 1704.110 49.474, 1703 46 C 1701.890 42.526, 1700.615 39.192, 1700.166 38.592 C 1699.717 37.991, 1698.787 35.475, 1698.099 33 C 1697.411 30.525, 1696.030 26.700, 1695.031 24.500 C 1694.031 22.300, 1692.933 19.268, 1692.591 17.763 C 1692.248 16.257, 1690.759 14.232, 1689.280 13.263 L 1686.592 11.500 1653.046 11.356 C 1634.596 11.277, 1618.375 11.431, 1617 11.698 M 1788 11.668 C 1786.625 11.903, 1784.375 12.949, 1783 13.991 L 1780.500 15.885 1780.207 121.193 C 1780.046 179.112, 1780.165 227.890, 1780.472 229.589 C 1780.827 231.555, 1781.990 233.191, 1783.668 234.089 L 1786.306 235.500 1821.500 235.500 L 1856.694 235.500 1858.347 234.128 L 1860 232.755 1860 123.618 L 1860 14.481 1857.750 12.991 L 1855.500 11.500 1823 11.369 C 1805.125 11.298, 1789.375 11.432, 1788 11.668 M 1614.571 21.250 C 1613.658 24.138, 1612.277 27.850, 1611.502 29.500 C 1610.727 31.150, 1609.827 34.188, 1609.501 36.250 C 1609.176 38.313, 1608.453 40, 1607.896 40 C 1607.338 40, 1607.160 40.450, 1607.500 41 C 1607.840 41.550, 1607.633 42, 1607.040 42 C 1606.385 42, 1606.197 43.080, 1606.562 44.750 L 1607.162 47.500 1606.096 46 L 1605.031 44.500 1605.015 47.750 C 1605.007 49.538, 1604.611 51, 1604.136 51 C 1603.251 51, 1595.641 69.495, 1594.408 74.641 C 1594.032 76.214, 1593.470 77.942, 1593.159 78.482 C 1592.849 79.023, 1592.507 80.148, 1592.400 80.982 C 1592.099 83.319, 1589.601 89.426, 1588.665 90.112 C 1588.205 90.448, 1587.891 91.123, 1587.966 91.612 C 1588.041 92.100, 1587.806 93.400, 1587.443 94.500 C 1587.080 95.600, 1586.862 97.108, 1586.958 97.850 C 1587.055 98.593, 1586.701 98.933, 1586.172 98.606 C 1584.942 97.846, 1583.884 100.533, 1584.638 102.500 C 1584.955 103.325, 1584.768 104, 1584.224 104 C 1583.679 104, 1582.990 104.787, 1582.694 105.750 C 1582.397 106.713, 1580.510 111.775, 1578.500 117 C 1576.491 122.225, 1573.931 129.425, 1572.811 133 C 1571.691 136.575, 1570.263 139.831, 1569.638 140.235 C 1569.012 140.639, 1568.893 140.976, 1569.372 140.985 C 1569.852 140.993, 1569.778 141.563, 1569.207 142.250 C 1568.637 142.938, 1568.132 143.838, 1568.085 144.250 C 1568.038 144.662, 1567.963 145.113, 1567.917 145.250 C 1567.871 145.387, 1567.714 146.602, 1567.569 147.949 C 1567.424 149.296, 1566.812 150.563, 1566.209 150.764 C 1565.606 150.965, 1565.360 151.775, 1565.663 152.565 C 1565.966 153.354, 1565.752 154, 1565.186 154 C 1564.362 154, 1563.290 156.813, 1562.521 161 C 1562.470 161.275, 1561.806 162.625, 1561.045 164 C 1560.283 165.375, 1557.534 172.660, 1554.936 180.189 C 1552.337 187.718, 1549.901 193.568, 1549.522 193.189 C 1549.143 192.810, 1548.924 192.950, 1549.035 193.500 C 1549.146 194.050, 1549.155 194.725, 1549.055 195 C 1548.954 195.275, 1548.722 197.048, 1548.538 198.939 C 1548.353 200.831, 1547.426 202.947, 1546.476 203.641 C 1545.467 204.379, 1545.004 205.569, 1545.363 206.504 C 1545.701 207.384, 1545.618 207.882, 1545.180 207.611 C 1544.411 207.136, 1537.414 225.414, 1536.800 229.500 L 1536.500 231.500 1568.941 231.500 L 1601.382 231.500 1603.104 226 C 1604.052 222.975, 1606.246 216.900, 1607.980 212.500 C 1609.714 208.100, 1611.606 203.237, 1612.184 201.694 L 1613.235 198.887 1649.368 199.194 C 1675.906 199.419, 1686.078 199.831, 1687.678 200.747 C 1689.048 201.531, 1690.445 204.017, 1691.441 207.446 C 1692.313 210.445, 1693.444 213.157, 1693.955 213.472 C 1694.466 213.788, 1695.181 215.949, 1695.543 218.273 C 1695.906 220.598, 1697.175 224.525, 1698.364 227 L 1700.526 231.500 1732.449 231.764 C 1751.129 231.919, 1764.756 231.644, 1765.299 231.101 C 1765.870 230.530, 1765.220 228.045, 1763.614 224.648 C 1762.176 221.610, 1761 218.587, 1761 217.930 C 1761 217.273, 1760.108 215.293, 1759.018 213.530 C 1757.929 211.766, 1756.837 209.238, 1756.593 207.912 C 1756.348 206.585, 1756.059 205.387, 1755.949 205.250 C 1755.840 205.113, 1755.666 204.662, 1755.564 204.250 C 1755.462 203.838, 1754.600 201.713, 1753.648 199.529 C 1752.696 197.346, 1751.415 193.521, 1750.800 191.029 C 1750.185 188.538, 1748.853 184.932, 1747.841 183.015 C 1746.828 181.098, 1746 178.990, 1746 178.330 C 1746 177.670, 1745.475 175.863, 1744.834 174.315 C 1743.527 171.160, 1743.304 170.461, 1743.125 168.941 C 1743.056 168.359, 1742.480 168.203, 1741.845 168.595 C 1741.143 169.030, 1740.962 168.871, 1741.383 168.189 C 1741.764 167.573, 1741.127 165.210, 1739.968 162.937 C 1738.809 160.665, 1738.112 158.151, 1738.419 157.351 C 1738.726 156.551, 1738.576 156.144, 1738.086 156.447 C 1737.080 157.069, 1735.003 151.800, 1734.993 148.601 C 1734.990 147.445, 1734.129 145.198, 1733.080 143.607 C 1732.031 142.016, 1731.435 140.030, 1731.756 139.193 C 1732.138 138.199, 1731.935 137.922, 1731.170 138.395 C 1730.435 138.849, 1730 138.419, 1730 137.237 C 1730 134.400, 1726.940 126, 1725.906 126 C 1725.408 126, 1725 124.942, 1725 123.649 C 1725 120.241, 1722.958 114.908, 1721.903 115.560 C 1720.997 116.120, 1720.850 115.642, 1720.496 110.995 C 1720.391 109.618, 1719.550 107.030, 1718.627 105.245 C 1717.704 103.460, 1717.298 101.993, 1717.724 101.985 C 1718.151 101.976, 1717.982 101.639, 1717.348 101.235 C 1716.715 100.831, 1713.940 93.750, 1711.183 85.500 C 1704.958 66.874, 1702.450 60.247, 1700.935 58.422 C 1700.286 57.640, 1700.090 57, 1700.500 57 C 1700.910 57, 1700.744 56.396, 1700.131 55.658 C 1699.519 54.920, 1699.256 54.077, 1699.548 53.785 C 1699.840 53.493, 1698.943 51.118, 1697.555 48.507 C 1696.166 45.896, 1695.275 43.364, 1695.574 42.880 C 1695.873 42.396, 1695.593 42, 1694.952 42 C 1694.311 42, 1694.024 41.380, 1694.315 40.622 C 1694.606 39.864, 1694.479 38.851, 1694.033 38.372 C 1693.586 37.892, 1691.794 33.225, 1690.050 28 C 1688.306 22.775, 1686.145 17.938, 1685.248 17.250 C 1684.018 16.307, 1675.343 16, 1649.924 16 L 1616.230 16 1614.571 21.250 M 1787.896 21.250 C 1787.838 24.138, 1787.826 72.625, 1787.870 129 L 1787.948 231.500 1820.974 231.763 L 1854 232.027 1854 124.013 L 1854 16 1821 16 L 1788 16 1787.896 21.250 M 88 55.098 C 84.975 56.216, 80.475 57.508, 78 57.969 C 72.579 58.979, 67.791 60.996, 66.700 62.729 C 66.260 63.428, 64.821 64, 63.502 64 C 62.182 64, 59.889 65.125, 58.405 66.500 C 56.922 67.875, 55.266 69, 54.725 69 C 51.768 69, 36 88.098, 36 91.679 C 36 92.548, 34.875 96.377, 33.500 100.189 C 32.125 104, 31 109.161, 31 111.656 C 31 116.592, 33.565 126.613, 35.066 127.541 C 35.580 127.858, 36 129.721, 36 131.679 C 36 133.783, 37.126 137.123, 38.750 139.839 C 42.135 145.499, 54.787 158, 57.130 158 C 58.074 158, 60.119 159.058, 61.673 160.351 C 63.248 161.661, 66.447 162.956, 68.897 163.276 C 73.550 163.882, 78.745 167.772, 76.175 168.725 C 75.446 168.996, 73.397 170.630, 71.621 172.358 C 66.587 177.256, 59.661 183, 58.790 183 C 58.355 183, 58 183.675, 58 184.500 C 58 185.325, 57.454 186, 56.788 186 C 56.121 186, 54.433 187.145, 53.038 188.546 C 49.171 192.424, 43.642 197, 42.822 197 C 41.484 197, 40.851 203.479, 41.916 206.278 C 42.492 207.795, 43.985 209.436, 45.232 209.925 C 46.479 210.413, 49.980 212.566, 53.010 214.708 C 56.041 216.850, 59.191 218.922, 60.010 219.312 C 60.830 219.703, 62.850 220.884, 64.500 221.938 C 66.150 222.992, 68.281 223.887, 69.235 223.927 C 70.189 223.967, 73.164 225.350, 75.846 227 C 78.527 228.650, 81.647 230, 82.778 230 C 83.910 230, 87.010 231.068, 89.668 232.374 C 92.342 233.688, 97.357 235.028, 100.898 235.374 C 104.416 235.719, 107.838 236.451, 108.502 237.002 C 112.697 240.483, 157.611 241.002, 165.386 237.659 C 167.523 236.741, 172.398 235.698, 176.219 235.343 C 181.075 234.892, 184.209 233.990, 186.628 232.349 C 188.531 231.057, 191.306 229.999, 192.794 229.999 C 194.282 229.998, 196.846 228.840, 198.491 227.426 C 200.135 226.011, 202.737 224.603, 204.271 224.296 C 205.806 223.989, 207.900 222.672, 208.924 221.369 C 209.949 220.066, 211.082 219, 211.442 219 C 211.801 219, 214.295 216.669, 216.984 213.821 C 220.339 210.266, 223.147 205.747, 225.936 199.412 L 230 190.181 230 178.440 L 230 166.699 227.641 161.600 C 226.344 158.795, 224.799 155.307, 224.208 153.848 C 221.970 148.329, 211.457 136, 208.989 136 C 208.445 136, 208 135.550, 208 135 C 208 134.450, 207.395 134, 206.655 134 C 205.915 134, 204.525 133.133, 203.566 132.073 C 202.607 131.013, 200.114 129.857, 198.026 129.504 C 195.938 129.152, 193.297 127.994, 192.157 126.932 C 191.017 125.869, 188.906 125, 187.466 125 L 184.848 125 187.174 122.094 C 188.453 120.496, 190.512 118.706, 191.750 118.116 C 192.988 117.526, 194 116.358, 194 115.521 C 194 114.685, 194.625 114, 195.389 114 C 196.693 114, 202.535 109.303, 207.513 104.250 C 208.732 103.013, 210.188 102, 210.750 102 C 211.311 102, 212.507 100.875, 213.408 99.500 C 214.309 98.125, 215.598 96.988, 216.273 96.974 C 217.569 96.947, 221 90.357, 221 87.895 C 221 84.259, 203.343 70.064, 196.849 68.480 C 195.391 68.124, 193.272 66.970, 192.141 65.916 C 191.009 64.862, 188.972 64, 187.613 64 C 186.255 64, 184.531 63.438, 183.783 62.750 C 180.898 60.099, 177.546 58.809, 172.128 58.267 C 169.032 57.957, 164.166 56.645, 161.314 55.352 L 156.128 53 124.814 53.033 L 93.500 53.065 88 55.098 M 566 55.500 C 564.075 56.811, 561.076 58.178, 559.335 58.538 C 557.594 58.897, 555.153 60.273, 553.910 61.595 C 552.668 62.918, 551.087 64, 550.398 64 C 549.709 64, 548.290 65.088, 547.244 66.417 C 546.199 67.746, 544.481 68.983, 543.426 69.167 L 541.509 69.500 540.960 64.760 C 540.423 60.129, 539.470 58.797, 534.500 55.733 C 533.055 54.842, 523.706 54.413, 500.822 54.187 L 469.145 53.874 466.029 55.485 C 464.316 56.371, 462.483 58.229, 461.957 59.613 C 461.375 61.144, 461 95.347, 461 146.910 L 461 231.690 463.105 233.595 L 465.210 235.500 500.855 235.500 C 528.058 235.500, 537.033 235.196, 538.750 234.215 L 541 232.930 541.060 189.215 C 541.118 146.538, 541.622 136.470, 543.766 135.144 C 544.345 134.787, 545.564 132.630, 546.476 130.351 C 547.388 128.072, 550.016 124.507, 552.317 122.429 L 556.500 118.650 561.728 118.203 L 566.956 117.756 570.378 121.478 C 578.691 130.520, 579 131.293, 579 143.045 C 579 148.390, 579.576 153.469, 580.440 155.730 L 581.879 159.500 582.302 195.500 C 582.535 215.300, 583.052 232.266, 583.451 233.202 C 584.571 235.828, 589.762 236.156, 624.787 235.815 L 657.075 235.500 658.022 234 C 658.583 233.113, 658.976 213.628, 658.985 186.285 L 659 140.070 660.993 139.004 C 662.260 138.325, 663.225 136.445, 663.641 133.843 L 664.296 129.749 670.044 123.874 L 675.792 118 680.319 118 L 684.846 118 687.673 120.870 C 694.536 127.837, 695.235 129.130, 696.069 136.404 C 696.517 140.307, 697.810 146.371, 698.942 149.880 L 701 156.261 701 195.071 L 701 233.882 702.250 234.691 C 703.758 235.667, 765.721 236.391, 771.750 235.503 L 776 234.877 776 170.161 L 776 105.445 774.598 103.443 C 773.827 102.343, 772.695 99.430, 772.082 96.971 C 770.897 92.216, 767.001 83.723, 765.750 83.167 C 765.337 82.983, 765 82.182, 765 81.385 C 765 80.589, 764.325 79.678, 763.500 79.362 C 762.675 79.045, 762 78.261, 762 77.619 C 762 76.147, 750.331 64, 748.916 64 C 748.339 64, 746.434 62.910, 744.683 61.578 C 742.932 60.246, 740.191 58.829, 738.591 58.430 C 736.991 58.030, 733.841 56.651, 731.591 55.364 L 727.500 53.024 707.831 53.012 L 688.162 53 685.087 54.750 C 683.396 55.712, 682.010 56.837, 682.006 57.250 C 682.003 57.663, 681.307 58, 680.460 58 C 678.261 58, 671 61.853, 671 63.020 C 671 63.559, 670.116 64, 669.035 64 C 667.955 64, 666.647 64.791, 666.130 65.758 C 665.612 66.724, 663.137 69.627, 660.629 72.207 C 658.121 74.787, 655.402 78.384, 654.588 80.199 C 653.773 82.015, 652.390 84.398, 651.514 85.495 L 649.921 87.490 648.976 85.995 C 648.456 85.173, 648.024 84.045, 648.015 83.490 C 648.007 82.934, 646.875 81.266, 645.500 79.783 C 644.125 78.301, 643 76.785, 643 76.415 C 643 75.367, 631.340 64, 630.266 64 C 629.740 64, 628.511 63.117, 627.534 62.038 C 626.557 60.958, 624.125 59.574, 622.129 58.962 C 620.133 58.350, 616.414 56.758, 613.865 55.424 L 609.229 53 589.365 53.058 L 569.500 53.115 566 55.500 M 900.500 55.084 C 898.850 56.149, 895.854 57.473, 893.842 58.025 C 891.829 58.576, 889.129 60.139, 887.842 61.497 C 886.554 62.854, 885.050 63.979, 884.500 63.995 C 883.950 64.012, 881.632 65.760, 879.349 67.881 L 875.198 71.737 874.525 66.119 C 873.452 57.160, 873.042 56.210, 869.759 55.066 C 865.131 53.452, 802.851 53.619, 800.845 55.250 C 799.999 55.938, 798.338 58.128, 797.153 60.118 L 795 63.736 795 147.329 L 795 230.922 797.146 232.922 C 800.328 235.886, 804.480 236.173, 839.098 235.821 C 863.420 235.574, 871.062 235.196, 872.285 234.180 L 873.873 232.860 874.187 187.154 L 874.500 141.448 876.750 138.589 C 877.987 137.017, 879 134.472, 879 132.933 C 879 130.848, 880.559 128.563, 885.124 123.955 L 891.249 117.773 896.707 118.226 L 902.165 118.678 905.140 122.089 C 909.126 126.660, 910.592 129.656, 911.390 134.855 C 911.757 137.250, 912.809 140.625, 913.728 142.355 L 915.398 145.500 915.814 189.126 C 916.042 213.120, 916.611 233.370, 917.078 234.126 L 917.927 235.500 953.427 235.500 L 988.928 235.500 990.646 233.782 L 992.365 232.064 993.010 188.782 L 993.655 145.500 995.327 141.124 C 996.247 138.718, 997 135.230, 997 133.374 C 997 131.061, 997.466 130, 998.481 130 C 999.295 130, 1000.227 128.944, 1000.551 127.654 C 1000.874 126.364, 1002.718 123.820, 1004.647 122 L 1008.155 118.692 1013.133 118.213 L 1018.112 117.735 1023.056 122.864 C 1025.775 125.685, 1028 128.913, 1028 130.037 C 1028 131.160, 1029.013 133.974, 1030.250 136.290 L 1032.500 140.500 1033 186.701 L 1033.500 232.903 1034.800 234.201 L 1036.099 235.500 1071.514 235.500 L 1106.928 235.500 1108.714 233.715 L 1110.500 231.930 1110.820 185.215 C 1111.182 132.468, 1110.011 105.973, 1107.033 99.500 C 1106.021 97.300, 1104.589 93.700, 1103.852 91.500 C 1103.114 89.300, 1101.981 87.160, 1101.334 86.744 C 1100.686 86.328, 1099.856 84.619, 1099.488 82.946 C 1099.121 81.273, 1097.961 79.368, 1096.910 78.712 C 1095.860 78.056, 1095 77.048, 1095 76.473 C 1095 74.891, 1083.482 64, 1081.809 64 C 1081.006 64, 1079.314 62.898, 1078.049 61.552 C 1076.784 60.205, 1074.343 58.811, 1072.624 58.453 C 1070.906 58.095, 1067.531 56.722, 1065.124 55.401 L 1060.748 53 1041.353 53 L 1021.957 53 1018.229 55.439 C 1016.178 56.781, 1013.263 58.179, 1011.750 58.548 C 1010.237 58.916, 1009 59.618, 1009 60.108 C 1009 60.599, 1008.325 61, 1007.500 61 C 1006.675 61, 1006 61.675, 1006 62.500 C 1006 63.325, 1005.135 64, 1004.077 64 C 1000.427 64, 987 79.217, 987 83.353 C 987 84.971, 986.449 86, 985.582 86 C 982.635 86, 981 84.705, 981 82.371 C 981 80.663, 978.600 77.624, 972.793 71.978 C 968.280 67.590, 964.208 64, 963.746 64 C 963.283 64, 961.863 62.876, 960.590 61.503 C 959.317 60.129, 956.751 58.714, 954.888 58.357 C 953.024 58.001, 949.572 56.650, 947.215 55.355 L 942.929 53 923.215 53.073 L 903.500 53.146 900.500 55.084 M 1178.992 55.355 C 1176.521 56.650, 1173.028 57.990, 1171.229 58.334 C 1169.430 58.677, 1166.734 60.093, 1165.239 61.479 C 1163.744 62.866, 1161.761 64, 1160.833 64 C 1159.905 64, 1158.260 65.125, 1157.179 66.500 C 1156.097 67.875, 1154.797 69, 1154.290 69 C 1153.408 69, 1147 75.714, 1147 76.638 C 1147 76.883, 1146.083 78.068, 1144.961 79.272 C 1143.840 80.475, 1142.639 82.589, 1142.293 83.969 C 1141.947 85.348, 1140.653 87.271, 1139.419 88.242 C 1138.052 89.317, 1136.894 91.666, 1136.458 94.247 C 1136.064 96.578, 1134.675 100.056, 1133.371 101.975 L 1131 105.464 1131 112.010 C 1131 116.093, 1130.457 119.330, 1129.558 120.614 C 1128.706 121.830, 1127.608 127.789, 1126.876 135.165 L 1125.637 147.656 1126.810 157.196 C 1127.454 162.444, 1128.658 168.033, 1129.485 169.618 C 1130.357 171.290, 1130.990 175.154, 1130.994 178.822 C 1130.999 183.646, 1131.566 186.134, 1133.388 189.322 C 1134.702 191.620, 1136.062 195.133, 1136.411 197.128 C 1136.760 199.124, 1138.160 201.959, 1139.522 203.430 C 1140.885 204.900, 1142 206.717, 1142 207.467 C 1142 209.115, 1144.829 212.679, 1151.500 219.436 C 1158.325 226.349, 1161.510 228.839, 1164.480 229.584 C 1165.866 229.932, 1167 230.516, 1167 230.881 C 1167 232.173, 1173.563 234.860, 1178.250 235.487 C 1180.862 235.837, 1183 236.524, 1183 237.014 C 1183 238.803, 1190.776 239.989, 1202.500 239.989 C 1214.262 239.989, 1222 238.802, 1222 236.998 C 1222 236.499, 1223.688 235.783, 1225.750 235.407 C 1229.812 234.666, 1240.851 227.286, 1240.943 225.250 C 1240.975 224.563, 1242.105 224, 1243.455 224 L 1245.909 224 1246.508 227.750 C 1247.359 233.077, 1248.238 234.305, 1251.871 235.246 C 1253.635 235.703, 1269.842 235.947, 1287.887 235.789 L 1320.696 235.500 1322.348 234.128 L 1324 232.755 1324 146.012 L 1324 59.270 1321.927 56.635 L 1319.855 54 1286.150 54 L 1252.445 54 1250.360 55.460 C 1248.271 56.923, 1246.665 60.185, 1245.585 65.157 L 1245.008 67.815 1243.004 67.291 C 1241.902 67.003, 1241 66.144, 1241 65.383 C 1241 64.623, 1240.152 64, 1239.115 64 C 1238.078 64, 1236.529 62.930, 1235.672 61.623 C 1234.816 60.315, 1232.906 58.942, 1231.429 58.571 C 1229.952 58.201, 1227.121 56.795, 1225.139 55.449 L 1221.536 53 1202.510 53 L 1183.484 53 1178.992 55.355 M 1450.452 55.408 C 1447.728 56.732, 1444.020 58.369, 1442.212 59.045 C 1440.403 59.721, 1438.475 61.113, 1437.927 62.137 C 1437.378 63.162, 1436.223 64, 1435.359 64 C 1434.495 64, 1432.903 65.125, 1431.821 66.500 C 1429.238 69.784, 1427 69.738, 1427 66.401 C 1427 61.964, 1423.931 56.869, 1420.360 55.377 L 1417.064 54 1386.097 54 C 1355.073 54, 1351.512 54.346, 1348.175 57.682 L 1346.500 59.357 1346.234 145.047 L 1345.967 230.738 1347.895 233.119 L 1349.822 235.500 1385.258 235.500 L 1420.694 235.500 1423.263 234.126 C 1424.675 233.370, 1426.088 231.795, 1426.402 230.626 C 1426.716 229.457, 1426.979 210.022, 1426.986 187.438 L 1427 146.376 1428.893 142.438 C 1429.934 140.272, 1431.372 136.475, 1432.088 134 C 1433.475 129.207, 1436.840 123.929, 1440.855 120.250 L 1443.311 118 1448.906 118.015 C 1451.982 118.023, 1455.487 118.585, 1456.694 119.265 C 1457.901 119.944, 1460.804 121.553, 1463.146 122.839 C 1465.487 124.125, 1468.325 126.029, 1469.451 127.070 C 1476.497 133.576, 1477.355 134.140, 1479.388 133.594 C 1480.550 133.282, 1482.010 133.021, 1482.633 133.014 C 1483.256 133.006, 1487.499 129.400, 1492.062 125 C 1496.624 120.600, 1500.439 117, 1500.539 117 C 1501.323 117, 1508 109.901, 1508 109.067 C 1508 108.480, 1508.644 108, 1509.432 108 C 1510.219 108, 1511.825 106.650, 1513 105 C 1514.175 103.350, 1515.781 102, 1516.568 102 C 1517.356 102, 1518 101.325, 1518 100.500 C 1518 99.675, 1518.400 99, 1518.888 99 C 1519.377 99, 1521.852 96.954, 1524.388 94.453 C 1527.551 91.335, 1529 89.080, 1529 87.274 C 1529 83.606, 1526.836 78, 1525.420 78 C 1524.773 78, 1523.677 76.634, 1522.985 74.964 C 1522.294 73.295, 1519.764 70.519, 1517.364 68.795 C 1514.964 67.071, 1513 65.287, 1513 64.830 C 1513 64.374, 1512.403 64, 1511.674 64 C 1510.945 64, 1509.298 62.882, 1508.014 61.515 C 1506.731 60.149, 1504.066 58.728, 1502.093 58.358 C 1500.121 57.988, 1496.618 56.631, 1494.311 55.342 L 1490.115 53 1472.759 53 L 1455.403 53 1450.452 55.408 M 1934.605 54.568 C 1932.463 55.353, 1930.213 56.386, 1929.605 56.862 C 1928.997 57.339, 1925.881 57.986, 1922.680 58.300 C 1918.593 58.700, 1915.857 59.634, 1913.496 61.435 C 1911.647 62.846, 1909.057 64, 1907.741 64 C 1906.425 64, 1904.292 65.125, 1903 66.500 C 1901.708 67.875, 1900.261 69, 1899.784 69 C 1899.306 69, 1897.008 70.439, 1894.675 72.197 C 1890.378 75.436, 1885.783 81.035, 1882.938 86.500 C 1882.079 88.150, 1880.871 90.400, 1880.254 91.500 C 1878.128 95.291, 1877 102.915, 1877.044 113.193 C 1877.109 128.385, 1880.783 139.022, 1888.652 146.797 C 1891.043 149.160, 1893 151.522, 1893 152.047 C 1893 152.571, 1893.665 153, 1894.477 153 C 1895.289 153, 1896.691 154.125, 1897.592 155.500 C 1898.493 156.875, 1899.966 158.033, 1900.865 158.073 C 1901.764 158.113, 1903.850 159.008, 1905.500 160.062 C 1909.166 162.403, 1909.523 162.546, 1914.402 163.632 C 1916.548 164.109, 1918.798 165.299, 1919.402 166.276 L 1920.500 168.052 1916 172.129 C 1913.525 174.372, 1909.117 178.410, 1906.203 181.103 C 1903.290 183.797, 1900.530 186, 1900.069 186 C 1899.607 186, 1898.493 187.125, 1897.592 188.500 C 1896.691 189.875, 1895.577 191, 1895.117 191 C 1893.256 191, 1887.183 197.853, 1885.900 201.401 L 1884.529 205.190 1887.647 207.845 C 1893.421 212.761, 1895.486 214.207, 1898.750 215.620 C 1900.537 216.394, 1902 217.471, 1902 218.013 C 1902 218.556, 1902.705 219, 1903.567 219 C 1904.428 219, 1906.608 220.125, 1908.411 221.500 C 1910.214 222.875, 1912.441 224, 1913.360 224 C 1914.278 224, 1917.422 225.350, 1920.346 227 C 1923.270 228.650, 1926.895 230, 1928.403 230 C 1929.910 230, 1933.024 231.072, 1935.322 232.383 C 1937.620 233.693, 1941.975 235.045, 1945 235.386 C 1948.025 235.728, 1952.525 236.754, 1955 237.665 C 1958.459 238.940, 1964.126 239.415, 1979.500 239.722 L 1999.500 240.122 2005 238.522 C 2008.025 237.642, 2013.875 236.456, 2018 235.886 C 2022.125 235.317, 2027.750 233.794, 2030.500 232.503 C 2033.250 231.212, 2036.865 229.881, 2038.533 229.546 C 2040.201 229.211, 2042.859 227.826, 2044.439 226.468 C 2046.019 225.111, 2047.977 224, 2048.791 224 C 2049.605 224, 2051.313 222.875, 2052.588 221.500 C 2053.862 220.125, 2055.353 219, 2055.901 219 C 2056.450 219, 2058.156 217.313, 2059.693 215.250 C 2061.230 213.188, 2063.053 211.140, 2063.744 210.700 C 2064.435 210.260, 2065 209.266, 2065 208.491 C 2065 207.715, 2066.085 206.050, 2067.412 204.790 C 2069.217 203.077, 2070.094 200.710, 2070.899 195.388 C 2071.491 191.477, 2072.653 186.977, 2073.481 185.388 C 2075.392 181.725, 2075.403 177.393, 2073.515 172.041 C 2072.698 169.726, 2071.526 164.832, 2070.912 161.166 C 2070.297 157.500, 2069.278 154.050, 2068.647 153.500 C 2068.016 152.950, 2066.825 151.150, 2066 149.500 C 2064.126 145.751, 2052.770 134.379, 2050.034 133.511 C 2048.915 133.156, 2048 132.463, 2048 131.971 C 2048 131.479, 2046.088 130.569, 2043.750 129.947 C 2041.412 129.326, 2038.097 127.958, 2036.382 126.909 C 2034.667 125.859, 2032.267 125, 2031.048 125 L 2028.832 125 2033.122 121 C 2035.481 118.800, 2037.769 117, 2038.206 117 C 2038.643 117, 2039 116.377, 2039 115.615 C 2039 114.853, 2040.084 113.520, 2041.409 112.652 C 2042.734 111.783, 2045.050 109.932, 2046.555 108.537 C 2048.060 107.141, 2049.676 106, 2050.146 106 C 2050.616 106, 2051 105.355, 2051 104.567 C 2051 103.779, 2051.888 102.853, 2052.974 102.508 C 2054.060 102.164, 2055.812 100.783, 2056.868 99.441 C 2057.924 98.098, 2059.110 97, 2059.503 97 C 2059.896 97, 2061.286 95.987, 2062.592 94.750 C 2064.312 93.120, 2064.970 91.398, 2064.981 88.500 L 2064.996 84.500 2062.595 83 C 2061.274 82.175, 2056.597 78.733, 2052.201 75.350 C 2047.805 71.968, 2043.149 68.879, 2041.854 68.486 C 2040.559 68.093, 2038.097 66.923, 2036.382 65.886 C 2034.667 64.849, 2032.331 64, 2031.191 64 C 2030.051 64, 2028.858 63.578, 2028.539 63.063 C 2027.286 61.036, 2021.207 58.800, 2015.500 58.266 C 2012.200 57.958, 2009.275 57.403, 2009 57.034 C 2008.725 56.665, 2006.578 55.606, 2004.230 54.681 L 1999.960 53 1969.230 53.070 L 1938.500 53.141 1934.605 54.568 M 2151.419 55.496 C 2148.714 56.869, 2144.925 57.995, 2143 58 C 2140.794 58.005, 2137.837 59.114, 2135 61 C 2132.525 62.645, 2129.344 63.993, 2127.930 63.996 C 2126.440 63.998, 2124.448 65.050, 2123.187 66.500 C 2121.991 67.875, 2120.598 69, 2120.092 69 C 2118.151 69, 2109.284 77.285, 2102.639 85.308 C 2098.288 90.561, 2093.369 100.116, 2089.670 110.500 C 2084.319 125.519, 2084.349 166.790, 2089.720 181 C 2093.425 190.799, 2100.127 204.112, 2101.651 204.696 C 2102.393 204.981, 2103.009 205.728, 2103.021 206.357 C 2103.044 207.612, 2114.247 219, 2115.459 219 C 2115.873 219, 2117.097 220.125, 2118.179 221.500 C 2119.260 222.875, 2120.593 224, 2121.139 224 C 2121.686 224, 2123.566 225.090, 2125.317 226.422 C 2127.068 227.754, 2129.850 229.165, 2131.500 229.556 C 2133.150 229.948, 2135.175 230.790, 2136 231.427 C 2138.626 233.456, 2142.332 234.745, 2148.500 235.777 C 2151.800 236.328, 2156.482 237.526, 2158.904 238.438 L 2163.309 240.097 2181.626 240.125 C 2198.873 240.152, 2210.290 238.959, 2211.498 237.003 C 2211.792 236.528, 2214.612 235.836, 2217.766 235.464 C 2220.920 235.093, 2225.380 233.711, 2227.678 232.394 C 2229.976 231.077, 2232.686 230, 2233.700 230 C 2234.714 230, 2237.109 228.714, 2239.022 227.141 C 2240.935 225.569, 2243.453 223.983, 2244.618 223.616 C 2245.783 223.249, 2247.540 222.060, 2248.523 220.974 C 2249.506 219.889, 2250.654 219, 2251.075 219 C 2252.307 219, 2263.824 207.129, 2264.432 205.232 C 2264.738 204.279, 2266.116 202.193, 2267.494 200.594 C 2268.872 198.996, 2270 197.014, 2270 196.189 C 2270 195.364, 2271.153 193.177, 2272.562 191.330 C 2274.361 188.972, 2275.031 187.006, 2274.812 184.735 L 2274.500 181.500 2269.500 180.434 C 2266.750 179.848, 2262.475 178.396, 2260 177.206 L 2255.500 175.044 2245.777 175.022 L 2236.055 175 2230.277 172.250 L 2224.500 169.500 2250.311 169.233 L 2276.122 168.966 2278.561 167.368 L 2281 165.770 2280.996 142.635 L 2280.992 119.500 2278.547 114.681 C 2277.202 112.031, 2275.808 107.904, 2275.449 105.510 C 2275.048 102.831, 2273.874 100.291, 2272.398 98.904 C 2271.079 97.665, 2270 95.560, 2270 94.227 C 2270 92.822, 2268.738 90.623, 2267 89 C 2265.350 87.459, 2264 85.478, 2264 84.599 C 2264 83.719, 2263.337 83, 2262.526 83 C 2261.715 83, 2260.391 81.763, 2259.584 80.250 C 2258.778 78.737, 2256.650 76.375, 2254.855 75 C 2253.061 73.625, 2250.910 71.713, 2250.075 70.750 C 2249.239 69.787, 2248.059 69, 2247.452 69 C 2246.845 69, 2245.292 67.875, 2244 66.500 C 2242.618 65.029, 2240.539 64, 2238.948 64 C 2237.461 64, 2235.685 63.325, 2235 62.500 C 2234.315 61.675, 2233.173 61, 2232.461 61 C 2231.749 61, 2231.008 60.525, 2230.815 59.945 C 2230.622 59.365, 2227.997 58.527, 2224.982 58.083 C 2221.967 57.639, 2217.475 56.324, 2215 55.160 L 2210.500 53.044 2183.419 53.022 L 2156.339 53 2151.419 55.496 M 245.208 57.194 L 240.953 60.464 241.226 117.128 L 241.500 173.791 243.270 175.746 C 244.516 177.123, 245.228 180.145, 245.676 185.957 C 246.128 191.810, 246.811 194.692, 248.023 195.857 C 248.964 196.761, 250.288 199.863, 250.966 202.750 C 251.645 205.637, 252.593 208, 253.074 208 C 253.555 208, 254.698 209.463, 255.615 211.250 C 257.999 215.900, 272.611 230, 275.046 230 C 276.155 230, 277.322 230.677, 277.640 231.504 C 277.957 232.331, 280.755 233.703, 283.858 234.553 C 286.961 235.403, 290.850 236.864, 292.500 237.799 L 295.500 239.500 311.500 239.500 L 327.500 239.500 331.485 237.250 C 333.677 236.012, 336.427 235, 337.596 235 C 338.765 235, 341.379 233.875, 343.405 232.500 C 345.431 231.125, 347.481 230, 347.960 230 C 348.439 230, 350.105 228.650, 351.662 227 C 353.219 225.350, 354.985 224, 355.586 224 C 356.187 224, 357.192 222.875, 357.818 221.500 C 358.480 220.046, 359.794 219, 360.957 219 L 362.957 219 362.827 226.048 C 362.747 230.368, 363.162 233.562, 363.898 234.298 C 365.311 235.711, 436.268 236.065, 437.667 234.667 C 438.125 234.208, 438.500 194.009, 438.500 145.336 L 438.500 56.839 436.559 55.419 L 434.618 54 401.759 54 L 368.901 54 366.074 55.462 C 364.415 56.319, 362.974 58.075, 362.585 59.712 C 362.221 61.245, 361.662 80.725, 361.343 103 C 360.899 134.095, 360.443 144.283, 359.382 146.872 C 358.622 148.727, 357.982 151.877, 357.959 153.872 C 357.931 156.406, 357.026 158.544, 354.959 160.962 C 353.332 162.866, 351.986 164.891, 351.969 165.462 C 351.930 166.741, 348.605 169.203, 342.613 172.389 L 338.060 174.810 332.610 170.907 C 328.736 168.133, 326.966 166.123, 326.491 163.957 C 326.123 162.281, 324.737 159.740, 323.411 158.309 L 321 155.708 321 107.542 L 321 59.376 317.750 56.938 L 314.500 54.500 281.981 54.212 L 249.462 53.924 245.208 57.194 M 1647.544 96.250 C 1646.066 100.237, 1644.217 106.254, 1643.437 109.619 C 1642.656 112.985, 1641.341 117.035, 1640.515 118.619 C 1639.688 120.204, 1639.001 122.400, 1638.986 123.500 C 1638.972 124.600, 1637.619 129.303, 1635.980 133.952 C 1634.341 138.601, 1633 144.338, 1633 146.702 L 1633 151 1649.750 150.985 C 1658.963 150.976, 1667.173 150.544, 1667.996 150.023 L 1669.493 149.078 1666.734 138.789 C 1662.757 123.956, 1660.114 114.411, 1657.934 107 C 1656.882 103.425, 1655.329 97.912, 1654.483 94.750 C 1653.568 91.333, 1652.394 89, 1651.588 89 C 1650.818 89, 1649.069 92.135, 1647.544 96.250 M 1649.149 110.881 C 1647.856 113.744, 1646.549 117.979, 1646.244 120.293 C 1645.939 122.607, 1645.108 125.400, 1644.396 126.500 C 1642.982 128.685, 1640 139.343, 1640 142.210 L 1640 144 1651.500 144 L 1663 144 1663 139.910 C 1663 136.917, 1662.417 135.348, 1660.825 134.059 L 1658.650 132.298 1657.860 124.911 C 1657.420 120.793, 1656.482 117.077, 1655.739 116.513 C 1654.350 115.457, 1652.333 110.880, 1651.806 107.588 C 1651.597 106.284, 1650.752 107.332, 1649.149 110.881 M 116.045 109.446 C 115.385 110.241, 112.409 111.436, 109.431 112.103 L 104.016 113.315 105.131 114.657 C 105.743 115.396, 106.909 116, 107.721 116 C 108.533 116, 110.616 116.644, 112.349 117.431 C 114.762 118.527, 121.774 118.943, 142.286 119.208 L 169.071 119.553 165.330 118.258 C 163.272 117.545, 160.640 116.071, 159.480 114.981 C 158.124 113.707, 155.966 112.995, 153.436 112.985 C 149.122 112.968, 142.605 111.005, 140.768 109.168 C 138.948 107.348, 117.587 107.588, 116.045 109.446 M 1960.435 109.408 C 1959.330 110.182, 1956.266 111.445, 1953.627 112.214 C 1948.190 113.800, 1948.576 114.619, 1956 117.251 L 1960.500 118.846 1986.482 119.239 L 2012.464 119.632 2008.999 118.218 C 2007.093 117.440, 2004.331 115.948, 2002.862 114.902 C 2001.393 113.856, 1998.963 113, 1997.462 113 C 1993.804 113, 1986.876 110.971, 1984.921 109.327 C 1982.659 107.426, 1963.174 107.489, 1960.435 109.408 M 2179.055 112.817 L 2174.610 113.134 2171.305 116.638 C 2169.434 118.622, 2168 121.196, 2168 122.571 L 2168 125 2183.469 125 L 2198.937 125 2198.391 123.577 C 2198.091 122.795, 2197.205 121.909, 2196.423 121.609 C 2195.640 121.308, 2195 120.458, 2195 119.718 C 2195 117.514, 2189.723 113.260, 2186.500 112.866 C 2184.850 112.665, 2181.500 112.643, 2179.055 112.817 M 1217.028 118.113 C 1214.334 119.189, 1211 122.362, 1211 123.851 C 1211 124.365, 1210.353 125.034, 1209.562 125.338 C 1208.772 125.641, 1207.649 127.602, 1207.068 129.695 C 1205.905 133.881, 1205.637 152.070, 1206.630 159.317 L 1207.260 163.914 1212.502 169.457 L 1217.743 175 1225.122 174.972 L 1232.500 174.943 1237.178 170.595 C 1240.407 167.594, 1242.234 164.892, 1243.077 161.874 C 1244.686 156.105, 1244.727 136.816, 1243.143 130.500 C 1241.665 124.606, 1237.174 119.197, 1232.692 117.912 C 1228.601 116.738, 1220.202 116.846, 1217.028 118.113 M 94 172 C 95.893 174.026, 97.763 175, 99.762 175 C 101.389 175, 104.471 176.238, 106.610 177.750 L 110.500 180.500 132.713 180.500 L 154.926 180.500 156.600 178.828 C 157.520 177.908, 158.001 176.445, 157.668 175.578 L 157.063 174 141.781 173.965 C 125.964 173.928, 110.117 172.238, 106.316 170.182 C 105.114 169.532, 101.221 169, 97.665 169 L 91.198 169 94 172 M 1938.114 171.984 C 1940.004 173.649, 1942.654 174.975, 1944.110 174.984 C 1945.546 174.993, 1948.471 176.212, 1950.610 177.694 L 1954.500 180.388 1971.258 180.810 C 1980.476 181.041, 1990.938 180.918, 1994.508 180.536 L 2001 179.841 2001 176.920 L 2001 174 1987.250 173.967 C 1972.450 173.932, 1953.731 171.997, 1950.268 170.143 C 1949.093 169.514, 1945.116 169, 1941.430 169 L 1934.729 169 1938.114 171.984 M 2170 170.986 C 2170 172.195, 2171.565 174.007, 2174 175.619 C 2176.200 177.075, 2178 178.656, 2178 179.133 C 2178 179.610, 2180.434 180, 2183.408 180 L 2188.816 180 2193.408 175.537 C 2195.934 173.083, 2198 170.608, 2198 170.037 C 2198 169.370, 2193.002 169, 2184 169 L 2170 169 2170 170.986" stroke="none" fill="#d66020" fill-rule="evenodd"/></svg>